<svg xmlns="http://www.w3.org/2000/svg" width="1254" height="1254"><path fill="#eb7306" d="m678 67 12 5 3 1 6 3 58 24 12 5 32 13 61 26 44 18 9 4 3 1 12 8q3 8 0 16-6 7-15 9l-4 2-2 1-6 3-3 1-2 1-5 2-2 1-11 5v65l1 4c33-2 65-18 92-36l9-7 2-1q7-6 16-5 7 2 11 8c9 19 4 43-2 62q-11 27-31 47l-2 2q-7 8-18 15l-7 5 7 12 12 26q18 42 22 87v3q6 42-7 82v3q-13 42-45 74l-3 1q-1 4 1 8l9 8 2 2 9 10 22 27 1 2 2 1 2 4 1 2 1 1q8 6 18 7l11 2 10 2 3 1 26 5c25 4 25 4 32 12l2 2q4 7 4 16v2l-4 21-2 11v2l-1 6-1 7-1 4-2 9q-4 15 4 27l12 25q17 40 3 80l-2 5-2 5-2 6-1 3a95 95 0 0 1-17 28l-7 8h-2v2l-6 5-2 1-6 3v2l-8 4c-5 4-6 13-7 19l-1 3-2 10-2 9-1 6c-5 23-5 23-15 29s-21 2-32 0l-7-1-47-11-18-2-5-2-12-2-18-4-12-3-15-2-4-1-6-2-22-3-4 3q-18 14-37 24l-4 3-4 1h2l20 5 4 1q17 4 32 12l3 2 6 4v2l2 1q4 2 5 6l2 2q4 11 2 20-2 6-8 9-11 4-24 0l-2-1-6-1-2 3q-3 7-10 10-16 2-29-8-5 0-9 3l-2 3q-6 4-13 2-12-4-22-13l-3-2-16-16-4-4q-4-4-6-10l-2-4-1-2-5-10-1-2h-35l-55-1-1 2v2l-1 3a77 77 0 0 1-17 27c-12 13-27 27-44 30q-8 1-14-4l-2-2-4-2-9 4-2 1-2 1q-11 5-22 1-6-3-6-6v-2h-2l-2-2-5 1q-14 3-26-2v-2l-3-1q-6-8-4-17l3-7 2-4c9-16 32-22 49-26l20-5 4-1-3-3 1-1-3-1q-13-7-25-15l-9-6-5-5q-14 0-27 2l-8 1h-2l-23 3h-3l-3 1-5 1h-4l-3 1h-3l-19 2-31 5q-11 0-23 3l-16 2-18 2q-11 1-21-5v-2l-2-1q-6-4-7-12l-1-4v-2l-5-34-1-3v-6q0-7-7-12l-2-2-3-2-11-11v-2h-2l-2-5h-2c-13-22-13-22-16-33l-3-10q-5-12-7-24l-1-3a135 135 0 0 1 15-71h2v-2l4-9 2-3 1-2 1-8-1-3-4-31q-2-9-3-19l-2-16q-4-14 2-26c10-12 24-13 38-15l13-2h4l18-2c21-1 21-1 26-8l5-7 6-7 18-20 2-2 12-12q-1-7-7-11l-5-5v-2l-3-1-5-6-2-2-12-19-2-3a162 162 0 0 1-21-66l-1-28v-7q0-20 4-41l1-6 9-35 1-4 1-3 3-3 5-14 1-2 20-38h-2q-5-1-8-6l-7-5-16-16-4-4q-12-14-20-32l-1-3c-8-18-13-40-6-59q2-8 10-11 7-3 13 1l3 2 5 3 4 2v2l3 1 6 3 9 5 12 6q15 8 31 14l2 1q42 14 85 11h3l8-2q3-4 2-10l1-2v-5l1-8 1-5v-12l-7-4-3-1-76-34c-21-8-21-8-24-14q-3-7 0-14 3-5 10-8l3-2 3-1 3-1 10-4 9-4h2l66-28 15-7 76-31 58-24 12-5 2-1 6-2c18-8 34 0 51 8m176 160v2l-2-1q-4 0-6 2l-3 1-2 1-3 1-5 3-7 3-11 5 6 43 7 1h3l2 1h12q5 1 10-2v-60z"/><path fill="#2e2b34" d="m514 360 3 1 4 2 2 1q18 8 33 21l3 2c12 11 26 27 32 42l1 3 11 33 2-1a89 89 0 0 1 69 1v-3c0-12 8-27 14-37l2-4q13-23 34-38l3-4 7-4 3-2 3-2 2-1q14-9 29-13l3-1 10-3 3-1q31-5 62 1l4 1c35 6 66 30 87 58l1 2q4 4 4 10h2a129 129 0 0 1 17 63v20l-1 7-1 6q-10 54-51 88l-2 2q-50 38-113 30-12-1-23-6l-6-2q-11-3-20-9l-2-1a152 152 0 0 1-35-28l-2-3-10-13-2-2-9-17-3-4-2-5-3-10-5-15v-4l-2-16c-1-9-1-9-4-12l-9-4-4-1-16-1h-3q-10-1-21 3l-3 1-6 4-1 12q-1 19-8 38h-2l-1 4q-1 8-6 14l-2 3a156 156 0 0 1-78 67h-2l-4 2c-31 12-68 8-98-4l-3-1c-28-10-55-36-69-63l-3-5-2-5-2-2q-3-7-4-14h-2l-2-8v-2q-4-17-4-35v-2c0-43 18-76 48-107l3-1v-2l9-7a141 141 0 0 1 62-25l3-1c24-4 54-2 76 9"/><path fill="#faedd4" d="M503 704c13 11 12 38 14 54l7 50v4l1 21h2v3l2 12v2l5 45 3-2c18-10 18-10 28-13l4-1 2-1 5-2 11-4h2l7-1 6-1 6-1 6-2h25c29 0 29 0 33 2l-1-7-1-2-2-9q-2-7 0-13h2l1-3q5-3 10-2l6 4 8 8 12 11 8 8 5 4 5 5 9 9c8 7 8 7 8 12v5q-3 9-12 14l-5 4-2 1-40 30q-5 4-11 3-4 0-7-5l-1-1c-2-11 3-21 7-31h-5l-3-1-4-1c-34-4-72 0-103 15l-3 1-12 7 1 18 4 25 1 7v6l3 10 1 9v3l1 4v8l1 3 1 9q3 14-5 26-12 10-29 10l-59 8v2h-4l-55 7h-3l-3 1-5 1h-4l-3 1h-3l-19 2-31 5-57 7q-11 1-21-5v-2l-2-1q-6-4-7-12l-1-4v-2l-1-5-1-7-3-22-1-3v-6q0-7-7-12l-2-2-3-2-11-11v-2h-2l-2-5h-2c-13-22-13-22-16-33l-3-10q-5-12-7-24v-3a135 135 0 0 1 14-71h2v-2l4-9 2-3 1-2 1-8-1-3v-4l-4-27-3-19-2-16q-4-14 2-26c10-12 24-13 38-15l35-4c21-1 21-1 27-8l3-6 6-6-6 9-7 10 3-1a411 411 0 0 1 58-7l19-3 18-2 37-5h3l7-1h3l15-2 12-2q18-5 34 3"/><path fill="#9ad6db" d="m835 703 8 1 31 7 20 3 3 1 34 7h4l5 2 5 1 37 7 6 1-2-5 2 2q7 3 14 4l3 1 9 2 8 1 6 1 27 6c25 4 25 4 32 12l2 2q4 7 4 16v2l-4 21-2 11v2l-1 6-1 7-1 4-2 9q-4 15 4 28l12 24q17 40 3 81l-2 4-2 6-2 5-1 3q-5 13-15 25l-2 3-7 8h-2v2l-6 5-2 1-6 3v2l-8 4c-5 4-6 13-7 19l-1 3-2 10-2 9-1 6c-5 23-5 23-15 30-10 5-21 1-32-1l-7-1-47-11-18-2-5-2-12-2-18-4-12-3-15-2-4-1-6-2-22-3-4 3-8 6-2 2-8 5-2-1q3-4 7-5l6-5 9-6 1-3h-3l-9-1-19-4-31-6q-10-1-16-8-5-8-5-17v-2l2-13 2-15 2-15 5-32 1-5 1-6 1-6 2-11 4-29 3-16 2-11 2-10v-2l2-13 1-5 1-8v-3l2-8 1-11v-2l2-7 1-5v-3l1-3 1-7 4-24v-2l7-45q1-13 10-22c12-7 26-3 39 0"/><path fill="#2f2e37" d="m678 67 12 5 3 1 6 3 58 24 12 5 32 13 61 26 44 18 9 4 3 1 12 8q3 8 0 16-6 7-15 9l-4 2-2 1-6 3-3 1-2 1-5 2-2 1-11 5v65l1 4h8l2-1h5l-1 2-8 1-14 2-19 1h-25c-59 1-59 1-77 9l-8 2q-9 1-17 6l-8 3-15 7-5 3q-5 2-11 6l-2 1-14 11-4 1-1 3-12 10-10 9-4 4q-5-1-9-6l-4-3-1-1q-17-16-36-28l-2-1v-2l-3-1-10-5-17-8-2-1v-2h-2l-19-6-16-5q-33-7-67-6l-50-1h-2c-6-1-6-1-8-3h3l50 2h3l8-2q3-4 2-10l1-2v-5l1-8 1-5v-12l-7-4-3-1-76-34c-21-8-21-8-24-14q-3-7 0-14 3-5 10-8l3-2 3-1 3-1 10-4 9-4h2l66-28 15-7 76-31 58-24 12-5 2-1 6-2c18-8 34 0 51 8m176 160v2l-2-1q-4-1-6 2l-3 1-2 1-3 1-5 3-7 3-11 5 6 43 7 1h3l2 1h12q5 1 10-2v-60z"/><path fill="#ee7607" d="m286 238 3 2 5 3 4 2v2l3 1 6 3 9 5 12 6q15 8 31 14l2 1q15 6 32 8v2l39 2h11a319 319 0 0 1 87 9l5 1 12 5 10 3v2l5 1 2 1 8 4 9 5 2 1 6 3v2l2 1c15 6 29 20 41 32q3 5 9 6l1-2 5-6 3-3 3-2 8-7 4-3q4-2 7-6l13-9 3-2a189 189 0 0 1 39-20l11-4 13-3 5-2 9-2 8-1 3-1a261 261 0 0 1 61-2l12-1h4q13 0 26-2l14-2h2l1-2 8-2q38-11 69-32l9-7 2-1q7-6 16-5 7 2 11 8c5 11 6 27 3 39l-4 2-4 7q-4 9-12 17l-1 1q-13 14-29 24l-3 2c-26 16-26 16-37 16v2l-2 1-16 4q-8 3-17 3h-3q-11 2-20-4-14-5-29-6h-2l-17-1h-4l-19 1h-2l-12 3-4 1-12 4-6 2-25 13-5 3-2 1-1 3-5 4a125 125 0 0 0-37 49q-7 15-10 30l-16-4q-23-6-47 2l-8 2-1-3-9-26c-7-16-18-34-32-45l-2-2a115 115 0 0 0-55-31 142 142 0 0 0-91 0q-16 7-33 2l-4-1c-23-5-23-5-26-8l-7-2-2-1-5-1v-2h-2l-8-3v-2h-2l-8-4-3-2-3-2-3-2-8-7-10-8q-16-15-24-34h-2c-4-11-2-26 2-37q8-12 21-6"/><path fill="#fbb333" d="m849 383 4 1a121 121 0 0 1 42 22v2l2 1 8 6 1 2q10 9 13 20h2l10 23c8 17 6 46 1 63l-1 6-7 17-1 3-9 13-2 3q-10 14-25 26l-2 1-11 5v2l-3 1-17 7c-25 10-57 6-81-3-29-12-50-36-63-63l-1-2a113 113 0 0 1 68-153c21-9 51-9 72-3"/><path fill="#fbb334" d="M462 380h3q40 0 71 26l3 2q15 14 25 32l1 2q5 7 6 16l2 3 1 7 2 5a106 106 0 0 1-5 58q-4 13-12 24l-3 5-1 2h-2l-1 2q-2 6-7 10l-1 1q-4 5-9 7v2c-8 7-24 19-35 19v2q-33 11-68 5v-2h-6q-12-3-21-9l-3-1q-9-5-17-12l-2-2q-37-32-42-81c-1-26 6-56 23-77l1-2q23-28 57-39l5-2q17-4 35-3"/><path fill="#c75502" d="M312 486h1v2q0 21 4 40l2 13h2v2l8 16 1 3 6 10 16 21c22 26 56 44 90 47 28 1 51-2 77-13l2-1c27-11 49-34 63-58l1-2q6-10 10-21h2l3-17q4-11 4-24c0-8 0-8 3-11l6-3 2-1q11-5 24-3h3q10-1 18 3l3 1 2 1 3 1q4 3 4 8l1 7q1 23 11 44l1 2 4 8 5 9 9 13 4 8 4 2 4 4c15 18 39 31 61 37l6 2q21 6 44 4h4a141 141 0 0 0 114-73l1-2q6-10 9-21l3-6 3-12h1q2 20-6 36l-1 4q-12 33-37 56l-2 2q-4 6-12 10l-5 4q-6 6-14 8l-2 2-11 3-6 3-10 2v2c-30 7-64 5-92-7l-3-1c-23-10-51-29-63-52l-5-5v3q-5 18-17 34h-2l-1 2q-3 7-10 13l-2 2-5 5-1 2q-7 6-16 6-8 1-14-5l-2-2-6-5v-2l-3-1-14-19-2-2-7-13-4-7-3-11-2 2-2 3-3 3-7 8-5 5-8 9h-2v2l-3 3-2 1-4 1-1 3-5 3-6 4-4 1v2l-7 4-2 1-10 2v2c-25 8-25 8-35 9h-3q-16 2-32 0l-11-2-16-4-10-3v-2h-3q-19-6-33-20l-3-3q-24-21-38-49v-2h-2l-1-2-3-12-1-3-1-2-2-6-2-10v-7h-2z"/><path fill="#f38406" d="m504 1110 16 5v2h3c16 2 16 2 18 4l17 1h5l36 1 41 1h27v-1l16-1h20q31 1 60-8v2h3l4 1h2l9 2 6 1q11 1 21 4l3 1q9 3 18 8l3 2 6 4v2l2 1q4 2 5 6l2 2q4 11 2 20-2 6-8 9-11 5-24 0l-2-1-6-1-2 3q-4 7-10 10-16 2-29-8-5 0-9 3l-2 3q-6 4-13 2-12-4-22-13l-3-2-16-16-4-4q-4-4-6-10l-2-4-1-2-4-7-1-3-1-2h-35l-55-1-1 2v2l-1 3q-5 14-15 24l-2 3c-12 13-27 27-44 30q-8 1-14-4l-2-2-4-2-9 4-2 1-2 1q-11 5-22 1-6-3-6-6v-2h-2l-2-2-5 1q-14 3-26-2v-2l-3-1q-6-8-4-17l3-7 2-4c9-16 32-22 49-26l20-5 4-1-3-3z"/><path fill="#2e2c35" d="M523 441a66 66 0 0 1 16 17q9 17 8 35v3q0 13-4 25h-2l-1 3q-2 7-8 13l-2 2-3 4h-2v2l-5 4-3 2-6 1v2q-29 11-56-1-21-13-30-35l-1-8h-2c-4-15-1-36 6-49q12-20 33-29l2-1c19-7 44-1 60 10m268-12h3q27 1 46 21l2 2q17 21 14 48-3 28-26 47a72 72 0 0 1-51 11q-10-2-17-6l-6-3v-2l-2-1c-12-7-19-22-23-35q-2-9-2-18v-4a62 62 0 0 1 41-57l2-1q9-3 19-2"/><path fill="#23222d" d="M637 164h2l16 1 8 2h3l27 5 19 4v2h2l18 4 3 1 15 5 10 3 10 4 5 2 3 1v2h3l9 3v2l2 1 13 5 3 1 3 6v3l1 4v9q-1 4-5 7l4 6v-3h2l1 7q-7 0-12-4l-16-7-8-4-11-5-7-2-5-3-6-1-11-4q-6-3-14-3l-9-3-8-2-5-1-6-1-4-1a144 144 0 0 0-34-3q-33-2-66 2h-4l-10 3-23 5-8 2-12 4-9 3-11 4-8 3-35 14c-5-7-5-11-4-20v-3q-1-6 3-11l9-5 3-2 10-4 3-1 28-11 6-1v-2l2-1 17-5h2l24-7 6-1 4-1 2-1 7-1 22-4 7-1z"/><path fill="#f75a2f" d="m1130 480 2 1q17 5 27 19l2 2 4 7 1 2q13 26 5 53-5 19-19 33l-3 3-7 8-5 5-3 3-8 13v2l-3 13q-1 4-5 7c-8 4-21 3-30 1q-4-1-6-6-4-20 5-38l2-4 1-3h2l1-2 5-8 16-18 3-4h2l1-2 2-4q8-12 5-26-4-9-12-13-10-3-19 1-7 3-12 11l-1 5q-2 6-7 10c-9 3-24 2-33-2q-4-2-5-6-1-18 8-35h2l1-2q2-5 6-9l2-1c20-19 47-25 73-16"/><path fill="#fbedd5" d="m681 833 6 4 2 2 6 6 12 11 8 8 5 4 5 5 9 9c8 7 8 7 8 12v5q-3 9-12 14l-5 4-2 1-9 7-25 19-1 1-5 3q-5 4-11 3-4 0-7-5l-1-1c-2-11 3-21 7-31h-5l-3-1-4-1c-34-4-72 0-103 15l-10 3-5-31-1-6q4-5 10-7l2-1 18-7 6-2 11-4h2l7-1 6-1 6-1 6-2h25c29 0 29 0 33 2l-1-7-1-2-2-9q-2-7 0-13h2l1-3q5-2 10-2"/><path fill="#fc9f01" d="M639 486h3q10-1 18 3l3 1 2 1 3 1q4 3 4 8l1 7q1 23 11 44l1 3 2 3q3 18-6 34l-2 3q-6 14-17 24l-2 2c-5 7-13 15-21 16q-11-2-18-12l-6-6a128 128 0 0 1-25-37l-1-9v-4q0-9 3-16l3-7h2v-2l3-15q4-11 4-24c0-8 0-8 3-11l6-3 2-1q11-4 24-3"/><path fill="#50ca51" d="M239 524q6 8 5 18-2 8-8 15l-5 9-9 14-3 6-7 11-3 4-1 2-4 7-12 20-1 2-9 14-2 3c-14 22-14 22-25 25q-10 0-17-7l-7-8v-2l-4-2v-2h-2l-4-5q-2-4-6-6l-3-6h-2v-2h-2l-3-3-12-13c-7-8-7-8-7-11l-3-1-2-6-1-3q0-7 3-14l3-1 1-2q2-4 6-5 9-2 16 2l5 4 7 7 5 5 2 2q11 9 17 20l6 3h3l1-3 2-5h2l1-3q0-4 4-7l4-6 1-3 3-6 6-7 1-3 2-2 3-6 1-2 8-13 4-7h2l1-2q2-7 7-13h2l1-2q2-5 7-8 13-4 22 4"/><path fill="#c45302" d="M1078 855q7 3 10 11l8 18 2 5q17 40 3 80l-2 5-2 5-2 6-1 3q-6 13-15 25l-2 3-7 8h-2v2q-8 8-20 12l-5 3h-2l7-36-3 1-13 2h-2c-15 1-15 1-20-2q-4-5-4-11c1-22 17-45 32-60h2l1-2q2-4 6-7l14-15c10-11 11-26 13-40s2-14 4-16"/><path fill="#c55302" d="m208 846 2 1 1 6v3l1 4c3 22 3 22 10 30l1 2 15 16c21 22 45 50 45 82q0 6-5 10-6 3-14 2l-6-2-4-1q-12-2-22-7l1 3q3 15 3 31l-2-1-6-2q-6-2-9-7l-3-3-2-4h-2l-2-5h-2c-13-22-13-22-16-33l-3-10q-5-12-7-24v-3a135 135 0 0 1 14-71h2v-2q2-8 8-13h2z"/><path fill="#f95023" d="M396 790q10 7 15 19l1 2q2 9 2 18v2l-2 13-1 2q-4 15-17 22-10 5-21 6l-17 3h-11v-2l-2-10v-6l-5-32-3-26v-3l-1-11c49-8 49-8 62 3"/><path fill="#157e92" d="m870 774 10 7 3 2v2l3 1 3 5 1 3q3 8 2 17v3q0 8-3 16l-1 4h-2l-1 2q-1 6-6 8l4 8 1 6-5 3-2 1h-5l-4-5q-2-5-5-5h-7q-17 1-29-10l-7-10-1-2q-6-16-1-33 3-9 8-14l2-2c10-12 28-14 42-7"/><path fill="#c85703" d="M264 245v7l-1 9v20h2l4 6 12 18 1 2 10 9 6 6q7 6 15 11l6 4 7 3v2l10 3v2h2l13 4 34 9 16 2-2 1-30 19-5 2v2l-4 3-11 11-4 4-1-1-6 2-4 1-5 2-6 1v2l-3 1h-4l-4 1-6 2-1 4-3 10-1 3-1 2-1 3-3 3 3-13h2v-3l4-11 2-2 20-38h-2q-5-1-8-6l-7-5-20-20q-12-14-20-32l-1-3q-15-30-5-62"/><path fill="#d1c4ac" d="M482 915q5 4 4 7c0 9 0 9-3 13q-5 4-14 4h-2l-12 1-3 1h-8l-25 4-3 1-6 1-9 1-49 5q-11 3-23 3l-4 1h-6q-5 0-9-3-4-7-2-14l7-7 9-2h3l7-1 10-2 11-1 14-2 24-3h5l64-9c15-1 15-1 20 2"/><path fill="#f08f17" d="M462 380h3q40 0 71 26l3 2q15 14 25 32l1 2q5 7 6 16l2 3 1 7 2 5 1 19v3l-1 15h-1v-2c-1-29-14-60-35-79q-38-35-88-33-29 3-53 17l-3 2q-36 26-49 69l-1 2q-4 12-2 25l2 1 1 7 1 2h-2l-1 3c-9-26-3-56 8-80q4-10 11-18l1-2q22-29 57-39l5-2q17-4 35-3"/><path fill="#c85702" d="M1013 283q0 11-4 21l-1 3q-10 26-30 46l-2 2q-7 8-18 15l-7 5 7 12c11 21 11 21 11 26h-2v-2h-4q-5 0-11-3v-2l-3-1-7-2-4-2h-2l-7-2q-4-2-6-5-20-20-45-31v-1h4c25-3 25-3 32-7l5-1h5v-2l3-1c34-12 64-33 82-65q2-4 4-3"/><path fill="#f08e17" d="m849 383 4 1a121 121 0 0 1 42 22v2l2 1 8 6 1 2q10 9 13 20h2l10 23 3 12 1 38h-1v-2c-1-32-18-60-40-82q-36-32-85-30-44 4-74 34l-2 2c-16 15-30 41-31 63v16h-1c-6-26 1-55 15-77a114 114 0 0 1 61-48c21-9 51-9 72-3"/><path fill="#f95325" d="M306 792v2h2q10 4 15 12 7 12 3 25-3 8-9 14l-2 1c-7 6-19 7-28 7v2l1 10 1 3 1 17-6 1-4 1h-9l-4-25-6-49-1-5v-12q22-4 46-4"/><path fill="#ae4402" d="M937 663v3q1 6 6 10l4 3 2 2 9 10 22 27c8 10 8 10 8 15l-32-5-14-3-8-2-26-5-46-9q5-5 12-7l15-8 3-1 33-22 5-4 3-2z"/><path fill="#d2c4ac" d="M451 974h2l5 1 1 4h2l2 7v3q-1 5-5 8-9 4-19 4l-39 4-27 4c-46 8-46 8-54 3q-5-6-4-13 2-6 6-9l5-1 2-1 13-1 7-1 3-1 20-2 11-1 18-3 13-2h5z"/><path fill="#af4401" d="m334 658 7 5v2h4l4 5 6 4 2 2 3 2 2 2 5 2 6 4q19 14 41 21-3 3-8 3h-4l-2 1-11 1-72 10-10 1-13 1 4-8 2-2 2-2 5-8q3-5 8-9l3-4 2-2 4-5 9-8 7-7q-1-6-6-11"/><path fill="#dc6706" d="M630 910h4c22 0 22 0 32 3l5 1-1 5-1 3-3 9h-3q-20-2-41-2h-2c-20 0-55 6-70 21q0 15 2 29l8 60-7-2-1-11-1-3-2-17-1-9-2-11-1-3v-8l-1-8-1-5-3-14v-13l3-2 7-4 11-5 8-3 17-5 3-1 8-2 2-1q16-3 31-2"/><path fill="#f95023" d="m471 772 1 17-13 2h-7l-3 1h-8l2 20 13-1 16-1 1 5 1 2v10l-8 1h-3l-17 1v2l1 11 1 4 1 19-9 1h-3l-2 1h-4q-2-4-2-9l-2-15-3-25-1-2-3-30-1-2v-6q3-3 6-2h4l3-1 26-3 2-1z"/><path fill="#349fae" d="M892 921h3l2 1 7 1 51 11 4 1 9 2 17 3 2 1c6 2 6 2 8 5v9q-2 4-6 5-10 1-20-3h-3l-10-2-10-2-42-9-8-2-3-1h-4l-3-1q-6-1-9-6l-1-9q6-8 16-4"/><path fill="#339fae" d="m890 997 10 3h3l49 10 10 2 5 1c8 2 8 2 11 5v2h2c1 7 1 7-2 11q-9 4-20 1l-3-1-17-4-28-5-16-4-5-1-7-1-7-2h-2q-7-1-10-6-2-6 1-13c8-4 18 0 26 2"/><path fill="#137c90" d="M905 805q6 0 12 2h2l2 1-1 5-2 11c-4 21-4 21 0 27q5 4 12 3l1-3 1-1q4-4 3-7l1-4 1-3v-3l1-7 3-13h7l3 1 6 1v4l-1 2-1 10-3 12v3l-5 26-15-2v-7l-3 2q-8 4-17 2-7-2-10-8v-2h-2c-5-16 2-36 5-52"/><path fill="#f94f23" d="m274 795 2 6-4 1v7l7 6 1-3 3 15v2l1 7c9-1 15-1 22-8l1-1 1 1 4 2v4l-4 2-5-2 1 2 1 7 3 1-5 5v2l-16 2 1 5 1 7v4l1 16-6 1-4 1h-9l-4-25-6-49-1-5v-12z"/><path fill="#ea5e36" d="M1116 672q9 7 10 17 2 12-5 20t-18 8q-12 1-20-8-5-6-6-13v-3q0-11 8-19 16-11 31-2"/><path fill="#faecd2" d="M370 801h3q9 0 15 7 7 10 6 22v2q0 8-4 15l-2 3q-9 9-23 8h-4l-1-10v-3l-1-18h-2l-2-25z"/><path fill="#157d92" d="m997 824 5 1h4l19 4 3 1h3l8 3c0 9 0 9-2 13l-6 5-4 3-2 2-8 8-2 1-7 7h2l21 4v9l-1 2v2l-17-2-4-1-4-1-19-5c0-8 0-8 3-12l6-6 4-3 2-2 5-5 2-1 3-3q5-5 6-4v-2l-22-4v-11z"/><path fill="#c75602" d="M639 486h3q10-1 18 3l3 1 2 1 3 1q5 5 5 12v4l4 19-1 7-2-2-9-11q-8-13-23-16-10 0-20 4v2l-4 4-2 1-5 3-2 5-5 6-1 2-3 4v-7q3-12 4-25c0-8 0-8 3-11l6-3 2-1q11-4 24-3"/><path fill="#dd6805" d="M736 909q3 1 5 4 2 6-1 12l-5 5h-2v2c-5 4-5 4-8 4v2h-2l-2 1-1 3-5 4-3 2-6 3-2 1-1 3q-4 4-7 3v2l-6 2v2q-8 6-18 5-6-2-9-8-1-7 1-15h2l2 2q3 2 8 3 9-3 15-10l4-2 1-2 11-7 13-10 2-2z"/><path fill="#99d6db" d="M863 789q8 4 11 12 4 14-3 27l-2 2q-4-3-6-8l-11 4 4 9v2q-12 0-19-8-6-11-4-24 4-12 13-16t17 0"/><path fill="#ac4202" d="M1104 912h1q7 32-6 62l-2 6-2 5-1 3q-6 13-15 25l-2 3-7 8h-2v2q-8 8-20 12l-5 3h-2l7-36-3 1-9 1v-1l7-1v-2h3q8 0 15-4l5-1 2-1 1-3 4-2q11-6 18-15h2v-2l4-1v-2l2-6a100 100 0 0 0 5-43z"/><path fill="#dd6b0c" d="M777 778h1l-3 23v4l-1 3v3l-2 6-2 14-1 6-1 7-1 6-1 4-1 5v3l-1 7c-2 19-2 19-4 21l-1 5v3l-1 4-1 7v4l-5 33-2 7v4l-2 7-1 6v7l-5 28-3 21c-1 9-1 9-3 13q-3 2-7 3l2-19 3-19 4-23a354 354 0 0 0 10-57v-2l2-8 2-12v-2l1-5 2-11 3-15 8-50 2-14 2-6 1-4v-4l4-1v-10h2z"/><path fill="#e27104" d="m762 1114 1 2 7 1 21 4v1h-3q-20 2-39 9-6 3-13 3-13 3-25 9-5 3-10 3v2h-2l-1 3-1-4-4-7q-3-4-4-10h-2l-1-6h-19v-1l16-1h20q30 1 59-8"/><path fill="#c55405" d="M937 663v3q1 6 6 10l4 3 2 2 9 10 22 27c8 10 8 10 8 15l-32-5-14-3-8-2-7-1c4-7 4-7 8-8l3-1v-2c5-4 5-4 8-4l1-2 6-8 1-4-2-1-2-2v-4q-8-10-18-18l1-4z"/><path fill="#e37204" d="m519 1115 1 2 14 2 4 1 3 1 17 1h24l16 1v1h-5v4l-5 13-1 2q-3 6-6 6v-3l-3-1-10-3-25-8-14-4-15-5-3-1 1-6z"/><path fill="#a94608" d="m192 966 3 4 2-2 5 4 2 1v2l5 2v2l2 1 11 6 7 4q4 2 4 5l1 5v3l1 3v3l1 17-2-1-7-2q-5-2-8-7l-3-3-2-4h-2l-2-5h-2q-11-18-17-37z"/><path fill="#2d9baa" d="m857 898 4 3v7l-5 5h-2v2l-3 3-13 11c-7 6-7 6-9 6l-1 3-8 1-4-5-2-3-2-3-2-3-4-7-3-3 1-8q4-3 9-1l6 7 4 8q6-3 11-9l12-11 3-2z"/><path fill="#2d9bab" d="m844 972 3 3q1 5-2 10-7 8-18 14v2c-5 5-5 5-8 5v2q-4 5-9 6-6-2-9-9l-4-5-1-3-4-5q-4-3-2-8l4-4 7 1 6 8 2 2 1 4h3l1-2q2-4 6-6l9-8 3-3 2-2q5-3 10-2"/><path fill="#127a8f" d="m970 818 7 1 4 1h3v14l-1 4-6 32-1 7-16-1 2-22 1-4 6-28z"/><path fill="#c15207" d="M907 684q4 3 4 8l5 27-25-4-29-6q4-5 12-7l15-8 3-2z"/><path fill="#c25101" d="m366 682 7 5q19 12 41 20-3 3-8 3h-4l-2 1-12 2h-5l-9 2-8 1h-2l-14 1v-1l12-3v-5q1-10 4-19l1-5z"/><path fill="#f3c995" d="m232 992 14 4 15 4 3 1c10 1 10 1 15-2l4-6q0 14-9 24c-5 3-14 2-19 0l-4-1q-5-2-11-3l-4-1v6h-1z"/><path fill="#f5e8cf" d="M511 459q7 3 9 10 2 8-4 15-5 5-13 5-7 1-12-6-4-6-3-13 2-8 9-12 7-3 14 1"/><path fill="#f4e7ce" d="M781 459q6 3 9 10 2 8-4 15-5 6-12 6t-12-5-4-14q0-7 7-11 7-6 16-1"/><path fill="#71b6bd" d="m1008 982 1 2-1 3c-1 12-1 12 1 17q8 5 18 3l21-2q0 10-4 18-4 2-8 2h-8q-8 0-15-2v-2l-4-1-1-4h-2q-2-11-1-23l1-4q-1-3 2-7"/><path fill="#c55304" d="M318 693h2l1 3 7 10 12 9-1 3 4 1-15 2h-5l-29 3 4-8 5-6 3-1q5-3 9-9l1-5zm-2 5 1 2 1-2z"/><path fill="#bd4f06" d="m1087 993 1 4q-7 12-17 23h-2l-1 2q-2 4-7 7l-2 2-5 2v2l-5 3-3 2-5 1 3-15v-2l2-8h2v4q7-1 13-6l1-1q14-9 25-20"/><path fill="#faead1" d="M281 810h12c7-1 7-1 11 2q5 6 3 14-2 6-8 9-7 2-15 1l-3-17v-9"/><path fill="#e46e0d" d="M519 774h2l2 8v2l1 13 1 7 1 10 3-1 4 22 1 9 1 8 1 5 2 12 1 6v3l1 3v3l1 8q-4 4-7 3v-2l-1-10-1-4-4-31v-2l-1-13h-2v-3l-5-42z"/><path fill="#c85804" d="m759 1091 4 1-2 5h2l7 2 2-1 1-4h2v2l2 1-1 5 11 1 6-1-11 7-7 5-4 1 16 4v1l-21-3h-9l-10 1 4-7 1-1-1-4 5-3-2-8 2-1zm13 10-1 3 4 1-2-4z"/><path fill="#1b949e" d="M239 524q4 4 4 9v2l-3-6q-1-3-5-4l-3-2q-6-2-13-1l-3 3h-3v2h-2l-1 2q-4 9-10 18l-7 12-6 10q-5 6-9 14l-7 11-9 14q-2 6-6 10l-3 6-4-1v-2h-2l-3-3-7-8-2-2-3-4q-5-4-4-6l-3-1-3-4-2-2-4-4q-5-9-15-9-9-1-15 6l-2 3-1-4 3-1 1-2q1-4 6-5 9-2 16 2l5 4 7 7 5 5 2 2q11 9 17 20l6 3h3l1-3 2-5h2l1-3q1-4 4-7l4-6 1-3 3-6 6-7 1-3 2-2 3-6 1-2 8-13 4-7h2l1-2q2-7 7-13h2l1-2q2-5 7-8 12-4 22 4"/><path fill="#a85519" d="m197 982 2 1 4 3v2l2 1q6 2 8 6l15 10-1 5v2l2 2-1 1 1 7q-5 1-8-3l-2-3-3-3-2-4h-2l-2-5h-2l-5-10-2-3-2-2-1-3zm32 33 2 4h-2z"/><path fill="#f9582c" d="M306 792v1l-16 1 7 1 1 7-2 2 1 3h-9l1-4h-6v5l16 1v1h-18v5l-10-2v-7l2-6 2-1-1-5q16-2 32-2"/><path fill="#f94e21" d="m401 844 5 3v2l2-1 1-3h2q-2 12-11 19-7 6-15 7l-3-1v-1l5-1-2-2 4-2v-2l3-3-7-6 5-5 2 2q5-1 9-6"/><path fill="#10778c" d="m889 796 2 1q2 7 1 14v3q1 8-3 15h-1v-6l-3 1q-4 1-8-2l-1-6v-13l2 4h2l4-5 2-2h2z"/><path fill="#f94a1e" d="m316 798 3 3-1 3-5-4-1 4h-2l-1 2-4 4h-10l-3-1h-10v-7h5l2 1v3l8 1-2-4 2-2v-6h-14v-1q17-5 33 4"/><path fill="#f9542c" d="m442 808 1 4h2l8-1h3l16-1 2 17h-10l-5-1-4-1q0-3 2-6h-2l-2-1-1-2q-3-2-7-2l-3 1z"/><path fill="#e06d03" d="m526 1147-4 9q-7 11-5 25 2 3 6 5 11 2 21-3l3-3 6-3 2 1q-11 10-26 13-8-1-14-7l-2-2q-6 1-10 3l1-3 3-1v-2c1-9 7-32 19-32"/><path fill="#19959f" d="M243 536h1q0 12-8 21l-5 9-9 14-3 6-7 11-3 4-1 2-4 7-12 20-1 2-9 14-2 3c-13 21-13 21-25 25l-8-2 8-1q8-1 12-7 9-11 14-22l13-21 14-23 5-7 3-6 7-11 10-16 4-7q4-7 6-15"/><path fill="#df6b04" d="m486 1145-3 5q-10 8-13 21 0 8 4 15l-3-1-1-4h-2l-2-2-5 1q-14 3-26-2l1-2 3 1q10 3 21-1l2-7q6-15 19-23z"/><path fill="#62886e" d="M975 428c14 14 15 53 17 72v3l1 22v3l-2 30h-1v-23l-2-48-1-16h-2l-2-9-1-3v-2l-1-3v-6h-2v-2h-2v-8h-2z"/><path fill="#157c90" d="m984 795 5 3q3 4 1 10-2 5-7 5-5 1-9-2-4-5-3-11 4-7 13-5"/><path fill="#f9491d" d="m353 804 3 6v3l1 3 1 22-2-7h-2l1 5-3 1-1 2-5 2-2 2-1-4-2 2-1-8v-5l2 2q6-4 8-9l2-3h1z"/><path fill="#f7d9ba" d="m539 892 2 1 2 8v2l2 19q1 5 5 8c-6 4-6 4-9 4l-2-1v-2l-1-10-1-4-3-18v-4z"/><path fill="#e26b07" d="m532 843 2 1 1 4v3l1 8 1 3 1 4 1 12 1 3v3l1 8q-4 4-7 3a249 249 0 0 1-4-47h1z"/><path fill="#9bcac3" d="M226 1022q6 0 10 4l1-2 2 9v2l1 12h3v10l1 9 2-1v2l1 8 1 3c2 17 2 17 5 22q-5-2-7-7-2-4-3-10v-2l-1-5-4-29-1-3v-6q0-7-7-12z"/><path fill="#528577" d="M1104 912h1q7 32-6 62l-2 6-2 5-1 3q-6 13-15 25l-2 3-7 8h-2v2l-6 5-2 1-6 3v-2l4-3a83 83 0 0 0 19-18q12-15 18-34 0-4 3-8l3-11 1-3q2-10 2-19v-25"/><path fill="#748664" d="M593 1124h93l1 6h2l1 2 5 10q4 5 4 11h-2l-13-26h-35l-55-1-1 2z"/><path fill="#1894a1" d="M856 225v65h-37l-1-13-3-14-1-21 4-2h7l-4 2-2 1-3 1 5 43 10 1h3l20-1v-58l-4-2z"/><path fill="#5e8c73" d="m504 1110 14 4v3l-5 1-2 6-6-2v-2h-2l-3 1-3 1h-7l-1 3-3 1v-2l-12 3-8 1-1 2h-7l3-3 2-1h3l3-1 3-1 30-8 4-1-3-3z"/><path fill="#4ca8aa" d="M410 1087h9v1h-2l-10 1-4 1-6 1-6 1-7 1h-3l-19 2-31 5-45 4v-1l21-3 3-1 4-1h6l6-1 19-2h3l14-3 16-2h6l6-1 4-1z"/><path fill="#fa5426" d="m389 793 3 1h7l2 2 3 1-7 13-2 2-1 1h-2l-5-9-3-1-1-6 2-1zm-27-10c20-1 20-1 28 4q-3 3-7 3l-4-1 1 3q1 4-2 7l-13-1 3-3-1-3-1-6 1-1-5-1z"/><path fill="#3aa0a6" d="M306 705q0 5-4 8l-7 9q-2 4-8 4l-2 1h-3l-7 1h-5l-31 4h-3l-8 1-3 1-17 3q3-4 8-4l3-1 3-1h3l24-4h4l18-2c21-1 21-1 27-8l5-9z"/><path fill="#7c7a57" d="M196 863h2l-1 5v2l-2 5q-3 3-3 7l-1 3-1 3-1 5v3l-2 4q-3 8-2 18v26h2l1 2v4l1 3 2 6 1 7q-9-13-10-29v-3a134 134 0 0 1 14-71"/><path fill="#f94a1e" d="M322 809q4 2 4 5v13l-3 2-4-1-2 1-5-5 1-9q4-2 9-2z"/><path fill="#329ca4" d="m1089 763 3 3v10q0 12-3 22l-2 11v2l-1 6-1 7-4 28v5l-3-2q0-9 2-18l1-6v-3l3-18 1-6 3-18 1-4q2-9 0-19"/><path fill="#20757b" d="m678 67 9 4-8 1-2-1-4-1v-2l-3-1v-2h-2l-3-1h-3l-7-4c-8-3-20-2-28 1l-4 3-4 1-6 3q-7 4-16 4 4-3 9-5l12-4 3-2 6-2c18-8 34 1 51 8"/><path fill="#e26f03" d="M750 1147q11 6 16 18 2 7 2 16l-6 1v-3q-2-18-12-32"/><path fill="#f94b20" d="M336 792h1l1 6 3-2 4 3 2 2q3 2 2 5v2l-3 2-2-1-1 2h-2l-1 12-2-1q-2-15-2-30"/><path fill="#827f66" d="M1086 611v7q-2 9-2 17v3c0 7 0 7 2 10l8 1h15l1-2h11l-3 4c-9 4-23 3-32 0q-5-5-5-13 0-14 5-27"/><path fill="#f95325" d="m345 853 4 5h2l1-2q6 2 6 5v2h-3l1 3-7 6 5 1v1l8 1v1l-12 1v-2h-3q-2-10-2-22"/><path fill="#1c8498" d="M843 771c18-1 18-1 27 3l-4 2-2-1v4l-1 3-2 4-7-1-3-11 1-1h-10z"/><path fill="#2c9da7" d="M1028 1099h1q0 8-6 15-8 8-19 6l-18-3-7-1-37-8-6-3h7l1 1 8 1h2l6 1v2h2l16 2 2 1 12 3c17 4 17 4 22 1l2-2 3-2q5-3 7-9l1-3z"/><path fill="#ac6e4e" d="M1085 481q-3 4-9 4h-3l-1 3-6 2-1 3-3 7-2 1-6 5q-3 5-6 5l-2 4h-2l2-7h2l1-2q2-5 7-9l1-1c19-18 19-18 28-15"/><path fill="#e06d03" d="M788 1144q13 3 19 14l6 11-1 3-1-2-2 1v-2h-3v-2h-2l-3-5-2-3-1-5h-2l-3-3-5-5z"/><path fill="#f95425" d="m442 808 1 4 19-1v1l-7 1 7 1 1 3 5 1v3l2-4 1 7-3-1-6 1h-3v2l-4-1q0-3 2-6h-2l-2-1-1-2q-3-2-7-2l-3 1z"/><path fill="#3e8b84" d="m990 336 1 2a153 153 0 0 1-40 37l5 10 2 5h-2l-1-3-2-4-3-1v-2h-2q-2-3-2-7l1-2h3l8-5 9-6 8-7 2-2 11-12z"/><path fill="#2b9295" d="M460 268h1v14l-2 8-55-1h-5l-2-1-4-2h3l14 1h3l33 1h3l8-2q2-5 2-10v-2z"/><path fill="#1a8397" d="m978 839 3 3q1 9-2 17l-1-7-1 4-7-4-3 1c0-7 0-7 2-10l4 1 1-2 3-1z"/><path fill="#fa5628" d="M436 781v2h4v8h6v1h-5l-1 3-1-2-1 3-3 1-4-3-2-2-1-1 1-2v-6z"/><path fill="#52887d" d="M1170 523q9 22 0 44-3 14-13 25l-3 1q2-5 6-9l4-10h2v-3l2-5 1-5 2-6q1-16-1-32"/><path fill="#60896f" d="M285 482h1l1 12v10l-1 6-1 11v3l-1 7v17h-1l-1-14v-14q-1-19 3-38"/><path fill="#10788d" d="M917 854q10-1 16 6-1 5-6 6l-9 1 3-2q-1-4-5-6z"/><path fill="#e4690b" d="M519 774h2l2 8v2l1 13 1 7 1 10 3-1q2 6 0 12l-1 2q-5-7-5-17l-1-8-1-7-1-6-1-7z"/><path fill="#23656c" d="M874 150q6 1 11 4l10 4 2 1 4 1 20 9h-5l-3-1-10-3c-9-2-9-2-11-5l-6-2-10-4v-2z"/><path fill="#137a8f" d="m874 830 11 2 2-1-4 9-2 2-4 2-1 2-4-14h2z"/><path fill="#3ca1a7" d="M226 1022q6 0 10 4l1-2 2 9v2l1 12h3l-1 20-3-10v-4l-1-8c-2-15-2-15-7-19l-2-1z"/><path fill="#43a5aa" d="M198 746h1v6h-2v17h2v2l4 40q-3-5-3-11v-3l-1-4-1-8v-4l-2-11q-4-13 2-24"/><path fill="#498c80" d="M1122 680q4 4 4 9 2 12-5 20t-18 8q-8 0-14-3l-1-2 3 1q11 3 21 0l1-2 2-1 5-5h2l1-12v-4z"/><path fill="#848253" d="m805 1167 1 2h5l1 3h2v3q14 6 28 2l-6 4q-10 2-21-3l-6-1-2 4h-1z"/><path fill="#1e7f85" d="m825 240-4 2-2 1-3 1 5 43h3v2h7v1h-12v-4l-1-6v-2l-3-15-1-21 4-2h7"/><path fill="#393132" d="M460 350h3c18 0 18 0 23 4l-44-1v-1q9-3 18-2"/><path fill="#137a8e" d="M1019 875q7 0 13 2l-2 12h-7v-2l-3-1 8 1-1-4h-2q-4-1-6-5h2v-2z"/><path fill="#768a62" d="m553 1177 2 1q-11 10-26 13-9-1-16-9l-3-1v-2l6-1 1 2q2 5 6 6 11 2 21-3l3-3z"/><path fill="#2f8e8e" d="m1092 988 1 2a81 81 0 0 1-14 23l-2 3-7 8h-2v2l-6 5-2 1-6 3v-2l4-3q10-7 17-16l2-2q8-11 15-24"/><path fill="#cc761b" d="m504 1110 14 4v3l-5 1-2 6-6-2v-2h-8v-1l13-2v-2h-2l-5-3z"/><path fill="#c24817" d="M408 709v1h-3l-55 7v-1a183 183 0 0 1 38-6l5-1h15"/><path fill="#91824d" d="M939 270h-2v2l-4 3-3 1-5 1v2h-3l-9 3-17 2 10-4q14-3 28-10z"/><path fill="#408e88" d="M1000 236q7 2 11 8 8 20 3 39h-1v-14q1-9-2-16l-1-3c-2-7-2-7-6-10l-15-1q5-4 11-3"/><path fill="#338d8d" d="M264 245v7l-1 9v20h2l4 24c-8-10-10-31-9-44q1-8 4-16"/><path fill="#3b8e8a" d="m793 1103-2 1-12 7-8 4 16 4v1l-24-4 1-3 10-2v-2l8-3 5-1v-2z"/><path fill="#f9e3cb" d="M541 949h1q5 25 6 50-3-2-4-5v-6l-1-15h-1l-1-16v-8"/><path fill="#1e939b" d="m986 728 2 2q7 3 14 4l27 6h5l4 3-28-4v-2h-3l-15-2q-4-1-6-5z"/><path fill="#279093" d="m290 242 8 3v2l3 1 6 3 9 5 23 12q-5 2-8-1l-9-5-10-5q-12-5-22-15"/><path fill="#95864b" d="M458 1130v2h-3v5l-2 1-2 4h-6l1-2q-5 1-8 5l-2 1-1 2-1-2c5-7 15-16 24-16"/><path fill="#c34a0e" d="M551 1058h3q-1 5-6 9l-2 2c-7 5-7 5-12 5h-6l-3 1h-2v-2l3-1 4-1h2q10-2 17-9z"/><path fill="#f94a21" d="M468 772h3l1 17h-17l8-2v-2l-2-1 2-4 4 1v2l1 2 2 1z"/><path fill="#528677" d="M196 863h2l-1 5v2l-2 5q-3 3-3 7l-1 3-1 3-1 5-3 9v4l-1 4-2 1q1-12 4-24l1-3z"/><path fill="#168095" d="m970 818 7 1 4 1h3v1h-2q-5 2-8 7l-4 4-1-6v-7z"/><path fill="#308c8c" d="M937 663v3q1 6 6 10l4 3 2 2q8 8 13 17h-2l-4-5-3-3-2-3-19-19 1-4z"/><path fill="#dd6b05" d="M514 1167h2v11l-6 1v3q-4 4-7 3l1-3 3-1 1-9h2l1-3h2z"/><path fill="#373231" d="M462 553h2q15 3 32 3-2 4-7 3h-7q-10 1-19-5z"/><path fill="#147b8f" d="m862 821 4 4v6l-7 2-3-5 1-6z"/><path fill="#737859" d="m962 698 9 9 3 3 2 3 2 3 2 2 2 3 4 7-6-3-1-4-4-2-2-6-6-6z"/><path fill="#f6e3ce" d="M405 710v1l-8 1v2h-9v1q-15 3-31 2v-1h2l10-2h6z"/><path fill="#1895a4" d="M1081 537h2q0 9-7 14c-9 3-22 1-31-1l-3-3h2q10 3 22 2h2c6 1 6 1 9-2q3-3 3-7z"/><path fill="#478c82" d="m1143 486 1 2-2-1-7-2-9-4q-9-2-19-2h-3l-19 1c14-9 45-4 58 6"/><path fill="#f9451a" d="M411 819q3 6 2 11v2q1 5-2 10l-1-9-5 5-2-3q1-3 4-5l-1-2h3z"/><path fill="#46342c" d="M962 474q3 2 2 6v33l-2 1z"/><path fill="#f8d8bc" d="m681 833 6 4-2 2-2-1-9-2-2 4h-3l1 14q-4-3-3-10l1-6h2l1-3q5-2 10-2"/><path fill="#d18520" d="M703 470h1v16q-3 12-2 25h-1l-1-18v-4q-1-9 3-19"/><path fill="#e37c36" d="M644 910v1h-14q-9 1-16 3l-8 1h-8l4-1v-2q21-3 42-2"/><path fill="#8ecfd5" d="M892 802h1l1 10v3l-3 18h-2l-1 2q-2 5-7 9l-2-1 1-1 2-2 2-2 2-4h2v-3l2-6 2-13v-10"/><path fill="#1a8094" d="M905 805q8 0 16 3l-2 12h-1l-1-3q-1-5-5-7v-2l-7 1z"/><path fill="#ea6436" d="M1114 517v2l-4 1v2h-2q-9 1-16 5h-2q1-4 4-6l7-2 4-2z"/><path fill="#458d81" d="M788 1120q10 1 20 4l3 1q9 3 18 8l1 2-4-1-3-1-4-3-6-1-10-4-10-2z"/><path fill="#fcf6e8" d="M358 815h1l5 34v3l1 5h-3v-5l-1-3-1-4-1-11z"/><path fill="#528a79" d="m312 401 1 4h-2v3l-3 7h-2v2l-1 2v3l-3 7-1 3-1 2-1 3-3 3 3-13h2v-2l5-13 1-2z"/><path fill="#7b7352" d="M462 1083q10 2 17 10l3 1v3h2l1 3-10-5-8-6q-4-2-5-6"/><path fill="#3c8d88" d="M1143 604q0 5-5 9-13 13-15 31h-1q-1-15 8-27l4-4 3-2z"/><path fill="#528677" d="M1012 283h1q-1 22-13 41v-7h2l1-2v-3l1-3 2-6 4-11z"/><path fill="#6c8968" d="m686 1124 1 6h2l1 2 5 10q4 5 4 11h-2l-3-5-2-5-8-16-7-1q4-3 9-2"/><path fill="#f9471b" d="m470 811-1 11-3-5-4 1v-2l-8-2 1-2z"/><path fill="#538a78" d="M295 441q3 7-1 14l-4 16-1 3v2l-3 4q2-20 9-39"/><path fill="#af5124" d="M1046 1016h2l-4 21 4-1-2 4-5 1 3-15v-2z"/><path fill="#8dcfd6" d="M838 796q4 2 4 5v3l-2 1-3 4v2l-2-3-1 9h-1q-1-10 3-19z"/><path fill="#19949f" d="M86 607h2c5 5 5 5 5 8h2l4 5 2 2 2 4 3 1 3 3 2 2 1 4h-2v-2h-2l-3-3-12-13c-7-8-7-8-7-11"/><path fill="#f37e19" d="m717 863 4 3v2l2 1q4 2 7 6v2l2 1 7 7q-8-1-13-9l-11-12z"/><path fill="#f9633b" d="M325 814q4 7 2 14l-4 10-3-1-1 3-3-1 1-3h2v-5l3-1 1-4 1 2 1-4v-10"/><path fill="#f9603a" d="M421 794c7 10 6 24 5 36h-1l-2-13v-4l-1-7z"/><path fill="#568c78" d="M286 567h2l1 10h2l2 9 2 7v5h2v5c-7-8-11-25-11-36"/><path fill="#5e4029" d="M655 459v1l-22 1q-12-1-22 2l3-3q20-4 41-1"/><path fill="#5f8a71" d="M983 585q1 6-1 12l-1 2-10 21c-1-4-1-4 1-8l1-2 1-3 2-5 1-3 2-6h2v-3z"/><path fill="#f9e3cd" d="M532 1071v1h-2l-4 1-30 3 2-1v-2q17-4 34-2"/><path fill="#428d85" d="m334 658 7 5v2l3 1v2h-2l-1 2q-2 4-6 7l-3 3-4 2-1 2q-2 4-6 7l-2-1 21-21q-1-5-6-11"/><path fill="#598b78" d="M469 1175v6l-2-1h-8q-12 2-24-2l1-2 3 1c11 3 20-2 30-2"/><path fill="#be541d" d="M1053 919h2q-8 14-20 23l-2-1 5-6h2l1-2q2-4 6-7z"/><path fill="#fbf2e0" d="M410 805c7 8 6 21 6 32l-2 6v-14l-3-18z"/><path fill="#c4580f" d="m318 691-2 6v2q-2 7-8 10l-4 1q6-10 14-19m-2 7 2 1-2 1z"/><path fill="#4f3d2e" d="M807 378h15l5 1h2c6 0 6 0 8 2h-19l-26 1 1-3z"/><path fill="#11788d" d="m995 865 1 4h5l-5 5h-3l-2 2v-4l-3 1 2-7z"/><path fill="#2b9baa" d="m877 926 1 3 3 1 1-1h3v5l-1 1 3 3-9-1-1-7v-4"/><path fill="#49887d" d="M1084 862q6 7 9 15l1 3q5 7 5 14h-2l-1-2-1-3-1-3-3-5-1-3-3-6q-3-5-3-10"/><path fill="#24656b" d="m477 123-3 3-2 2-6 2-2-1-1 2-12 2 14-7 2-1 3-1 2-1z"/><path fill="#0f778b" d="M817 804h2v5l4 1 1 5-2 3h-2l-1 2h-2z"/><path fill="#687d63" d="M947 371h5l-1 2q1 5 4 10l3 7h-2l-1-3-2-4-3-1v-2h-2q-3-3-2-7z"/><path fill="#718a65" d="m433 1148 1 4-2 3h-2v12h2l3 9q-4-1-6-6-3-8 0-16z"/><path fill="#282a33" d="M813 235v6l2 1-1 8h-1v-6h-2l1 4-2 1v-2l-3-4-1-5h3l1-2z"/><path fill="#206f76" d="M402 215h4v2l9 1 7 3 3 1q4 2 6 6-14-4-29-12z"/><path fill="#37a1af" d="M841 972h3v1l-7 2 5 6-3 6-3-5h-2q-2-5 1-8 1-2 6-2"/><path fill="#127a8e" d="m1005 831 3 3-2 5q-6 1-10-2v-2h2v-2z"/><path fill="#be8b32" d="M341 487h1l1 12v7l1 3v2l2 1 1 7 1 2h-2l-1 3q-5-18-4-37"/><path fill="#a9853f" d="M846 1151q4 5 3 11 0 7-3 13h-3l2-3v-13l1-1z"/><path fill="#f93d15" d="M267 844q3 5 3 12v2l1 16c-5-5-4-15-4-21z"/><path fill="#468c80" d="m339 269 12 4 19 7v1q-10 0-19-6l-10-3v-2z"/><path fill="#758963" d="m760 1182 2 1c-7 7-7 7-10 7q-8 1-15-3 8-2 15-1 4 1 7-2z"/><path fill="#528a78" d="M957 639q0 5-4 8l-2 3-12 13-2-1 1-1 13-16 2-2h2v-3z"/><path fill="#ebeddc" d="M199 750h1v22l-1-3h-2v-17h2z"/><path fill="#718964" d="m510 1116-8 3h-5v2l-7 1-1 3-3 1v-2h-7v-1h2l14-5q8-2 15-2"/><path fill="#167f93" d="M906 810h2l2 6-3 5h-2l-3 7v-10l3-4z"/><path fill="#418e86" d="M297 603h2l6 15h2v4h2l3 9q-10-11-15-26z"/><path fill="#3c8c85" d="m824 1082-2 1-6 4q-9 8-18 13l-2-1q3-4 7-5l6-4 3-3 5-4z"/><path fill="#f94218" d="m445 844 2 1 1 17h-1l-1-5h-2l-2 3v-9h2z"/><path fill="#9d4c13" d="M485 639v1q-12 4-24 3h-4l-10-1v-1h11l3-1z"/><path fill="#bc5408" d="M512 632q-5 5-11 6h-2l-9 2v-3z"/><path fill="#219095" d="M162 604h2l-6 12-5 8-4-1 1-3 3-1 2-5 1-2 1-2h2l1-2z"/><path fill="#548575" d="M183 940h2v4h2l1 6 1 3 2 6 1 7-5-10-1-2q-3-7-3-14"/><path fill="#f94018" d="M343 850h1l2 10v5l1 10h3v2h-5z"/><path fill="#bd4e0b" d="m203 851 1 5v8l-6 3-1 2q-1-10 6-18m1 7 2 1Z"/><path fill="#2c9aa1" d="M204 819h1l4 24-1 5h-2l-1 3-1-2 1-2 1-7-1-2v-3z"/><path fill="#8accd3" d="M1007 823v2h10l8-1v5l-25-4v-1z"/><path fill="#b7520b" d="M960 526h1v9q1 6-2 10l-5 2 1-4z"/><path fill="#d19d37" d="M729 485h1l1 26q-5-4-4-7v-4l1-4z"/><path fill="#d27b20" d="M766 1117q13 1 25 4v1q-13 1-25-4z"/><path fill="#fa5930" d="m344 787-2 1 1 2-5 1-2 11h-1l-1-15z"/><path fill="#66886c" d="M989 559h1q0 13-5 26h-1q0-8 2-16l2-6z"/><path fill="#1d2436" d="M961 503h1c0 22 0 22-2 28l-3 2 1-8 2-16z"/><path fill="#1f7a81" d="m451 134-6 3-3 1-6 3-5 3-5 1h-4q5-4 11-6l4-1 2-1 6-3z"/><path fill="#6d7d5f" d="m485 1100 8 2v-2h3v2h-2v2l4-1 1 2 5 3v2q-9-2-18-8z"/><path fill="#b55829" d="M1073 875h1q2 9-1 17l-1 1v6l-1 4h-3v-2l2-8z"/><path fill="#389190" d="M306 705q0 5-4 8l-7 10q-2 2-5 2h-8v-1h2q7 1 11-5l7-9z"/><path fill="#e56911" d="m438 704-13 4h-2l-3 1-8-1v-2z"/><path fill="#289095" d="M1144 488q13 6 20 19v2h-2l-3-5-2-2-3-5q-2-3-5-4l-5-3z"/><path fill="#297c7f" d="M460 268h1v10q0 6-2 12h-11l7-3 3-3z"/><path fill="#a97933" d="m762 1172 6 1v8l-6 1z"/><path fill="#299297" d="M1054 1035v2l-5 3q-6 3-8 10l-1 5h-1c0-9 0-9 2-14l6-3 3-2z"/><path fill="#c05621" d="M1030 945v5l-1 2h-2l-1 2q-2 6-6 11l-2-1 7-12 2-2z"/><path fill="#d8dfce" d="M206 824q4 6 3 13l3 5v7l-1 3v3h-1v-3l-1-4v-4l-2-5-1-10z"/><path fill="#f94119" d="m394 819 2 1 1 10-1 10h-2z"/><path fill="#604d32" d="M853 475q5 9 3 18v9h-1v-11h-2z"/><path fill="#543d2c" d="M805 351v1l-13 2v1q-7 3-15 1 13-6 28-5"/><path fill="#48887c" d="M279 324h2l1 2q6 11 15 20l-1 2q-7-6-12-14l-1-1z"/><path fill="#226a71" d="M356 194h4l3 1 5 2v2l4-1v4l5 1q-5 1-8-1l-3-2-3-1-4-2z"/><path fill="#408c87" d="m1121 565 1 4-2 1-2 2-2 2-4 5h-2l-1 2-3 5h-2l7-10 6-7h2z"/><path fill="#232632" d="M853 491h2v10q1 7-3 12l-1-8 1-3v-5z"/><path fill="#5d8b73" d="M503 1185q-11 7-24 5l-2-2h16v-2z"/><path fill="#fad2ba" d="m360 845 2 4v8l3-3 11 1q-7 4-15 3z"/><path fill="#538b79" d="m916 277 3 1q-4 5-10 5h-2l-11 1 11-4z"/><path fill="#f6ceae" d="M530 865q3 5 3 12v2l1 14h-1v-2l-2-5-1-7v-14"/><path fill="#f9633d" d="M362 783c20-1 20-1 28 4v1l-10-1-1-3h-17z"/><path fill="#e87525" d="M478 698h10q6 0 13 3l-1 2-3-1-14-2q-3 1-5-2"/><path fill="#eeb339" d="m355 546 3 3v2h2q3 3 2 8l3 1v3l2 1-2 2-5-8-1-2-3-4z"/><path fill="#618473" d="M1085 481q-3 4-9 4h-3l-1 3-6 3-2-1c14-11 14-11 21-9"/><path fill="#23242f" d="M826 440q7 3 12 8l2 1 3 4-1 4-3-4-2-2-2-4-2-1q-4-2-7-6"/><path fill="#728763" d="M975 428q4 4 4 8l1 4 1 8h-2v-2h-2v-8h-2z"/><path fill="#458a81" d="m958 390 5 7 1 2 1 3 1 2 3 9h-2l-1-2-7-15z"/><path fill="#1296a9" d="m504 1110 14 4v2q-8 1-15-3z"/><path fill="#42a5ac" d="M1028 1099h1q0 8-6 15l-6 4-4-1 2-1 2-1 2-2q5-3 7-9l1-3z"/><path fill="#f8653d" d="m442 808 1 4 19-1v1l-7 1 3 2q-5 2-10-1l-6 1z"/><path fill="#f9c3a9" d="m355 802 4 1h-3l2 3v21h-1z"/><path fill="#36a0a8" d="M1068 749q11 1 18 8 3 2 3 6h-2l-2-3q-4-7-12-8l-2-1h-2z"/><path fill="#647d64" d="M313 363q5-1 9 3l5 6-3 1-3-3-2-1z"/><path fill="#f6cdaf" d="M541 949h1l2 10v2l1 15q-3-2-4-6v-21"/><path fill="#f95e34" d="M340 813q3 4 3 9v6h-2l-1 9h-1z"/><path fill="#bf6030" d="M956 727h11v2l3-1q6 0 11 3h-12l-3-1-3-1-7-1z"/><path fill="#c75e09" d="M687 559c5 7 5 7 5 10l-1 2-3 1-1 2z"/><path fill="#61886c" d="m956 259 2 1-3 1-1 2-3 4-3 1-3 1-6-1 11-6 2-1 2-1z"/><path fill="#d8e4d4" d="M447 1079v2h13v1h-10l-2 1-14 1v-2l7-2z"/><path fill="#9adde6" d="M740 1018h2l-1 9v2q-1 7-3 13h-1v-3l2-17z"/><path fill="#38a0af" d="M940 950c14 0 14 0 20 2l2 3-22-4z"/><path fill="#c6561f" d="m297 718 1 2 8 1h7v1l-6 1-4 1h-9z"/><path fill="#212534" d="M326 553q6 5 8 12l1 2 3 9c-12-16-12-16-12-23"/><path fill="#e0d9c6" d="m764 460 2 1-4 7h-1v14l-2-1q-3-7 0-14z"/><path fill="#488c7f" d="m830 1135 8 4v2l2 1q4 2 6 7l-1 2-8-9-4-3z"/><path fill="#66896e" d="M591 1128h2q-3 11-9 20l-2 1 5-14h2z"/><path fill="#ce6634" d="M512 1074v1q-13 5-27 3v-1l10-1 2-1z"/><path fill="#f96c45" d="M407 812h2l1 2 2-1q3 7 2 16v8h-1v-7l-1-2-1-8-2 1z"/><path fill="#fae8d4" d="M288 792v1l-7 1-3 1h-10l-1-3z"/><path fill="#f0c6a8" d="M405 710v1l-8 1v2h-7l-4 1-8-1v-1l10-1 2-1z"/><path fill="#312d2e" d="M710 541q4 1 4 5l1 2 1 3 1 2 3 6h-3c-7-11-7-11-7-18"/><path fill="#d8cfbc" d="m490 464 1 7h-2v6l2 1-1 2 2 1q3 1 4 6-5-2-7-7-2-8 1-16"/><path fill="#378d88" d="m290 242 8 3v2l3 1 9 5v2l-11-5-2-2z"/><path fill="#8bcdd4" d="M984 825h1q2 10-1 20l-3 1z"/><path fill="#22949a" d="M1089 763q4 2 3 7v7l-2 15h-1v-2c2-19 2-19 0-27"/><path fill="#e9b038" d="M837 445q4 2 7 6l2 2 2 5h-3l-3-4-5-6z"/><path fill="#f9f3e1" d="M242 1049q4 4 3 11v10q-4-10-3-21"/><path fill="#f8e4ce" d="M551 1032q4 7 3 13v8l-3-2v-19"/><path fill="#f9e2c9" d="m569 878 2 1-4 1v3l-8 3h-5q2-4 6-5l7-2z"/><path fill="#0f758a" d="m963 863 2 8 1 4h-6v-8h2z"/><path fill="#62b4b9" d="m1089 782 1 11-1 3q0 8-4 14c2-23 2-23 4-28"/><path fill="#6a4325" d="M494 290v1l-35-1v-1l12-1h3q10-1 20 2"/><path fill="#246167" d="m670 66 17 5-8 1-2-1-4-1v-2l-3-1z"/><path fill="#f5f1de" d="m316 1096 3 2-16 2q5-6 13-4"/><path fill="#2e9fa9" d="M876 1093h7l7 2 5 1 3 1h2v1q-12 0-24-4z"/><path fill="#c85802" d="m776 1084 6 2-3 9h-2l-2-6 3-1zm3 2 1 2Z"/><path fill="#328e8d" d="M196 863h2l-1 5v2l-4 7-2 4-1 4v-7l1-2 1-3 1-3z"/><path fill="#1a8094" d="M890 797q3 3 2 8v17h-1v-3l-3-7 2-3v-12"/><path fill="#e3ac38" d="M401 595q7 2 14 6v2h3v2l-11-4-3-2z"/><path fill="#202636" d="M955 538c2 6-2 13-4 18l-2 4h-2z"/><path fill="#48342b" d="M602 501h3l-2 22h-1z"/><path fill="#c54b03" d="M465 1080h16v1h-2l-6 4h-2l-2-2-4-1z"/><path fill="#82c0bc" d="M240 1047h3l-1 20q-2-6-2-12v-8"/><path fill="#75bfc9" d="M892 802h1l1 10v9l-1 6h-3l1-10v-3l1-2v-10"/><path fill="#d09d36" d="m853 606-8 4-3 1-7-1 4-1h2v-2l4-1 3-1z"/><path fill="#4e877a" d="m269 305 6 9 4 10q-8-8-10-19"/><path fill="#f94219" d="M359 857h18v2l-11 1h-5z"/><path fill="#e78740" d="m524 818 4 6 2-1v6h-2l-1 4h-2z"/><path fill="#f95a31" d="m315 801 3 2h3l3 5-1 2-4-1v-2l-3-1z"/><path fill="#d38242" d="M809 698h7v1l-21 5 4-5z"/><path fill="#7c7d63" d="M1102 521h8v1h-2q-9 1-16 5h-2c2-7 6-6 12-6"/><path fill="#518c7b" d="m370 281 23 4v1c-13 0-13 0-18-2l-3-1-2-1z"/><path fill="#f77103" d="m266 247 2 2-1 3-2 14v2l-2 1v-11z"/><path fill="#3b8c86" d="m1069 1020 1 4h-2v2l-6 5-2 1-6 3v-2l4-3q7-3 11-10"/><path fill="#2999a9" d="M979 941q8-1 14 3l1 5v3l-3-6q-4-3-12-4z"/><path fill="#0f758a" d="M934 862h2l1 6 6 1h-11z"/><path fill="#e96e17" d="m701 849 11 8 1 5-12-11z"/><path fill="#fcf6e7" d="M259 809q4 6 3 14v5q-4-6-3-14z"/><path fill="#a8dee3" d="M1084 803h1q0 10-3 20h-1q0-10 3-20"/><path fill="#1695a2" d="m170 590 1 4-3 5-1 3-2 2h-3l-1 2 1-4 2-2 3-5 2-3z"/><path fill="#588a78" d="M1043 515v6l-1 2-1 9-3 4q0-11 5-21"/><path fill="#20212c" d="m509 455 5 4h-3l-15-1v-2q6-2 13-1"/><path fill="#1d848d" d="m924 194 2 1-8 4-2 1q-5 4-12 4 4-4 7-3v-2l2-1 3-1 3-1z"/><path fill="#1d868e" d="M650 57q11 2 21 7l1 2-6-1-4-1-7-4z"/><path fill="#fbf2e2" d="M498 1074q-4 4-10 3h-10q9-4 20-3"/><path fill="#86c9d1" d="m951 844 2 4v8h-2l-1 6h-1z"/><path fill="#cc9a36" d="M763 597h5l2 2q4 4 9 3l1 3q-10-1-17-7z"/><path fill="#348d8d" d="M327 373h3q-2 9-8 14 0-5 3-9z"/><path fill="#c95802" d="m557 1118 12 2-1 2h-12z"/><path fill="#2e9fa8" d="M851 1088q9 0 17 2l7 2v1l-16-2-2-1-6-1z"/><path fill="#c25b23" d="m759 1069 16 3q-3 3-7 2l-2-1h-3l-2-1v-2z"/><path fill="#bf5a1c" d="m737 1054 8 11-8-1z"/><path fill="#2295a6" d="M800 1001q5 2 6 6l4 3h2v2l-7-1q-4-4-5-10"/><path fill="#95653e" d="M1078 855q6 2 6 5v2q-3 0-5-4l-1 9-3 1 1-6v-3z"/><path fill="#faddc9" d="m426 844 2 1q3 7 0 14l-1 1-1-11v-5"/><path fill="#f93912" d="M261 800q3 4 3 10v8h-2z"/><path fill="#f93a13" d="M421 783q4 7 3 14v6h-1q-2-10-2-20"/><path fill="#fa572c" d="m470 772-1 1v8l-1-2-3-3h-2v-2l-5-1v-1z"/><path fill="#b35217" d="M343 665h2q0 5-3 9l-5 3-3 3-2-1 2-2 2-2 3-3 3-4h2z"/><path fill="#1895a0" d="M131 657q5 2 6 6l1 2h2l4 4 3 2q-8-1-14-10z"/><path fill="#dc740d" d="m829 349 16 1v2l-16-1z"/><path fill="#2a99a9" d="M967 1015q5 0 10 2 3 5 2 10l-3-9h-4l-4-1z"/><path fill="#c98147" d="M745 977h1v9l-3 9q-2-10 2-18"/><path fill="#41a5b3" d="m937 931 8 1h2q6 1 10 3h-10q-5 1-9-2z"/><path fill="#9be0ea" d="M1070 881h1v8l-1 2-1 10h-2z"/><path fill="#84c8d0" d="M932 862v3l-3 3-2 1-5 1v-2h-6v-1h2l4-1h3z"/><path fill="#f7d8ba" d="M621 867h6l-2 1v2l-14-1q4-2 10-2"/><path fill="#f9c6ab" d="M469 827v1h-7v2h-16v-1z"/><path fill="#f8e1c7" d="M420 815h4l1 9h-2l-2 2c-2-7-2-7-1-11"/><path fill="#ea7728" d="M507 708h2q5 7 3 16h-1z"/><path fill="#1695a3" d="M82 587h1v2q0 8 2 15l1 3-3-1q-4-9-1-19"/><path fill="#dfa838" d="M574 511q2 6-1 11l-1 4-1 3h-1l1-11v-3z"/><path fill="#7a875f" d="m969 413 5 9v3l1 2c-6-5-6-5-7-8h2z"/><path fill="#a9803c" d="m465 1172 5 2 2 6 2 6-4-3-1-8-2 1h-5l2-1z"/><path fill="#aed3c9" d="m251 1094 1 2 2 1q4 2 5 6h-5l-4-8z"/><path fill="#bc4b1f" d="M232 995h1l1 6 1 4v9h-2l-1-12v-7"/><path fill="#2b9aaa" d="M902 925q9 0 17 2-3 3-7 2l-4-1-3-1-3-1z"/><path fill="#097187" d="M1009 850h2l1 4q-1 4-5 5h-2l-2-2 4-5z"/><path fill="#84c9d0" d="M898 840h1l1 15-4-3q-1-7 2-12"/><path fill="#fcf7e9" d="M392 825h1v10q0 5-2 9l-1-1 1-7z"/><path fill="#b5510b" d="M327 558c7 9 7 9 7 13q-4-2-6-5l-2-6z"/><path fill="#4c887b" d="M965 361h2q-1 5-6 7l-3 2-6 3q1-5 7-7z"/><path fill="#2f8d8e" d="M778 1111q-2 3-5 3l-2 1-8 1 1-3 4-1c8-2 8-2 10-1"/><path fill="#a3cdcc" d="m768 1069 11 1v2l6 1q-9 2-17-3z"/><path fill="#f9e4cf" d="m666 945 5 3 7 1v2l-10-1q-2-2-2-5"/><path fill="#8ecfd6" d="M966 833q2 6 0 12l-1 2-1 5h-1v-10q0-5 3-9"/><path fill="#fcf6e8" d="m443 801 2 1v8l7-1v2l-9 1z"/><path fill="#ed8738" d="m515 749 1 2h2v6l1 5-1 6h-1l-1-7-1-3z"/><path fill="#d9e4d3" d="m293 725-2 3h-19q10-4 21-3"/><path fill="#1d2231" d="m427 609 18 3v1q-10 0-18-3z"/><path fill="#bc5407" d="M930 588h2q-1 5-5 8l-2 2-2 1-2-1 7-8z"/><path fill="#3e3834" d="M560 552h1q1 6-4 11l-4 1v-2h2l1-2z"/><path fill="#e2a937" d="m928 532 1 2-2 6-2 3-1 3-2-4 2-5 1-2z"/><path fill="#f7bb3a" d="M729 481v14l-1 5h-1l-1-7v-4l1-5h2z"/><path fill="#cb5925" d="M240 911q6 4 10 11l-4-1-1-3-3-1z"/><path fill="#f28733" d="M726 875q8 2 13 9l-2 2z"/><path fill="#f9cbb2" d="M265 842h1l1 16h-3z"/><path fill="#a1dadf" d="M874 808h1v11l-3 5-1 1 1-8v-2z"/><path fill="#f93d16" d="M300 794c10-1 10-1 14 3v2l-14-4z"/><path fill="#255e64" d="m443 233 2 1 12 2 5 3v2l-5-1v-2h-3q-6 0-11-4z"/><path fill="#c75d11" d="M787 1103v2l-8 3v-2l-2-1q5-2 10-2"/><path fill="#f4c19d" d="M232 992h2l2 9-2 7z"/><path fill="#e07529" d="M647 911h12l1 2-13 1z"/><path fill="#fcf8e9" d="M423 826h2l1 10v6h-1z"/><path fill="#f7f3e0" d="m202 793 1 3h2l1 17-3-9-1-6z"/><path fill="#b0330b" d="M355 715v1q-8 3-16 2v-2z"/><path fill="#398f8b" d="M318 691q0 5-4 9l-3 3-2 2-2-1 4-5 3-3z"/><path fill="#49887c" d="m301 352 9 6 3 2-1 3-5-4-3-2z"/><path fill="#ce530a" d="m287 332 1 2h2c5 5 5 5 5 9l2 1h-3l-4-4-2-3z"/><path fill="#202536" d="m723 307-5 3-3 2-5 1-2-1 6-3 3-2z"/><path fill="#293b40" d="M465 243h1v18h-3z"/><path fill="#1d7f88" d="m597 73-7 2-1 3-9 1q4-3 9-5l3-1z"/><path fill="#f8e3cd" d="M232 900q6 2 8 7l-1 3-3-4-2-2z"/><path fill="#a0bbb5" d="M1076 844h3l-1 9v5l-1 2-2 5v-4l1-5v-12"/><path fill="#2b8ea0" d="m988 799 2 1v8h-5l1-8 2 3z"/><path fill="#fbf3e1" d="M462 790h5q-4 4-10 3h-3v-2z"/><path fill="#f8d7bc" d="M452 770h18l-12 3h-7z"/><path fill="#a57f3e" d="m328 652 7 1 2 3-1 3q-5-3-8-7"/><path fill="#dba438" d="m702 513 4 3v7h-3z"/><path fill="#26252d" d="m446 441 3 1-9 8-1-3 3-3 2-2z"/><path fill="#212330" d="m497 431 7 1 6 2v2l-6-1-3-1-3-1z"/><path fill="#738664" d="m1008 243 4 3q3 7 2 14h-1z"/><path fill="#2a3a3f" d="m835 135 14 5q-6 2-10-1l-2-1v-2z"/><path fill="#3e8b84" d="m516 1178 3 8h-2l-4-4-3-1v-2z"/><path fill="#997e42" d="M508 1172h1v6l3 1h-2v3q-4 4-7 3l1-3 3-1z"/><path fill="#ea7f10" d="m443 1139 2 1-2 2-2 6-5 1q2-6 7-10"/><path fill="#ca5c25" d="M485 1078v4h-2v-2h-15v-1z"/><path fill="#6c7f68" d="M226 1022q6 0 10 4l1-2-1 4q-6-1-10-6"/><path fill="#bd410e" d="M1076 867h1q1 7-2 14h-1v-7z"/><path fill="#f9421a" d="m393 865 4 1c-8 5-8 5-13 5l-2-1v-1l11-2z"/><path fill="#f93d16" d="M409 845h2q-1 8-6 13l-2-1 1-2 1-2 2-3z"/><path fill="#f93c15" d="m454 788-1 3h-12q7-3 13-3"/><path fill="#faf4e2" d="M242 733q-3 3-7 3h-4l-3-1h-3v-1z"/><path fill="#ec6238" d="m1113 710-1 4-7 1 2-5z"/><path fill="#338e8c" d="m334 658 7 5v2l3 1v2h-2v2l-2-1-1-3z"/><path fill="#3b302e" d="m420 633 6 2v2l2 1q-7 0-13-3z"/><path fill="#b9540a" d="m901 615 1 2-4 3-2 2-7 1z"/><path fill="#dfa838" d="M733 573q6 2 8 7-4 1-6-2-2-2-2-5"/><path fill="#b2500b" d="M602 523h1q2 5-1 10l-2 3v-8z"/><path fill="#3a342f" d="M433 458v3h-2l-1 5-4 1c3-9 3-9 7-9"/><path fill="#408880" d="m320 387 1 4-3 1-2 5v2l-1 2h-2q2-7 7-14"/><path fill="#748b64" d="m716 1166 1 3 4 6-10-7z"/><path fill="#4c8b7c" d="m686 1124 2 9-4-6-7-1q4-2 9-2"/><path fill="#c14006" d="m520 1074-1 2h-4l-1 2v-2l-8 1 1-2z"/><path fill="#c6470d" d="M235 1018h1v8l-7-5 6-1z"/><path fill="#4caab7" d="M913 1021h8l5 1v2l3 1-16-3z"/><path fill="#328f90" d="M215 1011q5 2 8 6v2l3 1-1 2-10-10z"/><path fill="#cd5a22" d="m225 895 3 3 2 1 4 5q-5 0-7-3z"/><path fill="#c34b19" d="M216 884q5 5 9 11l-2 1v-2l-3-1q-3-4-4-9"/><path fill="#076e84" d="m942 813 8 1 4 2-7 1-5-1z"/><path fill="#83c8d0" d="M855 787h4v3h-7l-5-2z"/><path fill="#a2c5c2" d="m945 725 15 3q-3 3-7 2-5-1-8-5"/><path fill="#f6cbac" d="M459 703v1h-2l-3 1h-3l-4 2-8-1v-1z"/><path fill="#b6540d" d="M589 559h1l-2 10-4 1z"/><path fill="#22222c" d="m438 536 2 1v2l2 1q4 2 7 6-6 0-10-5z"/><path fill="#42312c" d="m694 415 1 4-4 7-3 1q2-7 6-12"/><path fill="#308888" d="M819 285h2v2h3v2h7v1h-12z"/><path fill="#207078" d="m897 206 2 1-13 5v-2h2l1-3h3z"/><path fill="#65896e" d="M846 1151q4 4 3 9v8h-1z"/><path fill="#f9ddc5" d="m480 1076 3 1h2v1l-15 1 3-3z"/><path fill="#cd7b3f" d="M750 940h2v5l-1 3q1 3-2 5l-1-6h1v-3z"/><path fill="#a7dde2" d="M1079 831h1c0 9 0 9-2 14h-1q0-7 2-14"/><path fill="#a6dde2" d="M898 831h1v7l-2 6h-1v-5l1-3z"/><path fill="#a9dfe3" d="M956 826h1l-1 13-2-1q0-7 2-12"/><path fill="#e0660f" d="M784 729h1v11h-2l-1 4z"/><path fill="#1695a3" d="M121 646q4 2 7 6l2 2 1 2h-3l-1-3h-2q-3-3-4-7"/><path fill="#6a8a69" d="M319 641h2v2h4l3 8q-4-1-6-5l-2-2z"/><path fill="#3a2f2e" d="m399 627 7 1 2 1 1 3-4-1h-3l-2-1z"/><path fill="#dfa938" d="m427 606 10 1v3h-5v-2h-5z"/><path fill="#232531" d="m390 591 12 6v2l-12-6z"/><path fill="#e25d2f" d="m1117 572 1 4-7 6q2-6 6-10"/><path fill="#1c2131" d="m679 536 4 6 1 3v5l-3-3-1-3v-3z"/><path fill="#588875" d="M1081 537h2l-1 4v3l-4 5-2-1 1-2z"/><path fill="#1d212f" d="M426 516h2l3 8v5l-2-4-2-3z"/><path fill="#4b8b80" d="M1164 509q5 4 6 10l-1 3q-3-4-3-9h-2z"/><path fill="#33908e" d="M1154 497h3l4 5 2 3 1 4h-2l-4-5-1-3z"/><path fill="#201f29" d="M541 468q4 3 4 7v6l-2-4-1-2z"/><path fill="#262834" d="M655 347h2q-1 4-6 7l-2 2-1 1v-3l6-5z"/><path fill="#c95307" d="m794 1077 8 1-1 3v-2l-3 2-4 2z"/><path fill="#bf561c" d="M1042 1036h6l-2 4-5 1z"/><path fill="#a6714b" d="m1043 1003 6 1-1 4v-3l-3 1-9 1v-1l7-1z"/><path fill="#fbf2e1" d="m724 875 10 7-1 3-4-4-3-3z"/><path fill="#b54206" d="m210 863 2 6-1 3-3-2v-6z"/><path fill="#278a9c" d="M963 852h1q2 8-2 15h-1z"/><path fill="#a9dfe3" d="m976 813 8 1-4 2v2l3 1h-5z"/><path fill="#d37c3a" d="M777 778h1l-2 16h-1v-14h2z"/><path fill="#50abae" d="M223 733v1l-6 2h-9q7-4 15-3"/><path fill="#f3c7a8" d="m321 721-2 3-12-1v-1z"/><path fill="#378e8b" d="m945 653 2 1-3 4-2 2q-2 3-5 2l3-4 2-2z"/><path fill="#628a70" d="M305 618h2v4h2l3 9q-6-6-7-13"/><path fill="#4f887b" d="M1152 593h2l-7 10h-2z"/><path fill="#3e3732" d="M919 553v6q-2 3-6 5z"/><path fill="#1b202f" d="m700 514 2 1 2 13q-4-6-4-14"/><path fill="#141623" d="m787 462 4 4v3l1 2-1 8h-1v-3l-1-3v-4z"/><path fill="#1b2031" d="M597 451q4 2 4 5v9h-1z"/><path fill="#49362d" d="m759 361 2 1-2 1-3 3-6 2-2-2 5-3 3-1z"/><path fill="#3a3131" d="M852 355h6l5 1v2l-8-1h-2z"/><path fill="#677e64" d="M476 1094h6v3h2l1 3q-5-1-9-6"/><path fill="#c85702" d="m742 1079 2 4-7-1v-2zm-4 4 2 1-1 2-3-1z"/><path fill="#e2792c" d="m683 947 2 1-2 4h-12v-1h2l3-1h3z"/><path fill="#bc571e" d="m1060 912 3 1q-3 6-6 6h-2z"/><path fill="#87cad2" d="m1017 862 2 1-1 1-2 2-2 2-3 4h-3l5-7 2-2z"/><path fill="#348b89" d="M203 851v4l-2 6-1 2h-2z"/><path fill="#f94118" d="m462 826-1 2h-10v-2z"/><path fill="#f9e2cb" d="M441 794h2v14h-1z"/><path fill="#8ecfd6" d="M875 777c7 2 7 2 9 4l-1 4v-2l-2-1z"/><path fill="#ab5822" d="m328 682 2 1-3 4-2 3q-2 3-6 3v-2l4-3z"/><path fill="#ba5309" d="m850 638-1 4-5-2-1 2-6-1v-1l5-1 3-1z"/><path fill="#dda637" d="m796 606 5 3h-9l-3-1h-2 9z"/><path fill="#1b2336" d="M685 551q5 5 6 12h-2l-2-4-1-3z"/><path fill="#b4540d" d="M620 489h-2l-2 1-1 3-4 1-2-2 4-2 2-1z"/><path fill="#181924" d="M517 462c5 5 5 5 5 8v6h-1l-1-3-2-6z"/><path fill="#45342e" d="m318 454 2 4q0 5-4 7z"/><path fill="#44342d" d="M946 424q4 4 5 10l-5-3-1-5z"/><path fill="#1d2232" d="m909 419 8 8-1 3-3-4-2-3z"/><path fill="#8a6f45" d="M995 330q0 6-4 6l-2 1 1-5z"/><path fill="#46332c" d="m512 291 2 3-12-1q5-2 10-2"/><path fill="#1894a1" d="M469 1175v6l-2-1-8-1q4-4 10-4"/><path fill="#7a865e" d="M688 1130q5 6 5 13-4-3-5-8z"/><path fill="#c95c14" d="m814 1082 4 2-9 6q1-5 5-8"/><path fill="#2899a9" d="m871 996-2 1q-3 4-4 9h-1l1-10z"/><path fill="#0c7389" d="m987 875 1 4 7 1v2l-8-1z"/><path fill="#f18f47" d="m596 868 8 1-12 3 3-1z"/><path fill="#faccb3" d="M267 859h1l1 13-3-1z"/><path fill="#097187" d="m927 859 4 2-2 4h-4v-3h2z"/><path fill="#a4dce1" d="M880 847h2c4 6 4 6 4 9l-1 2-2-4-2-3z"/><path fill="#298a9d" d="m970 818 14 2v1h-12v-2z"/><path fill="#2f8d9e" d="m952 814 5 1-1 9h-1l-1-6z"/><path fill="#a2cbca" d="M775 794h1l1 7-2 6-1-8 1-3z"/><path fill="#f94219" d="M392 789q6 2 10 6l-2 2-1-3-5-2z"/><path fill="#fcf8ea" d="M515 769h2l1 8v5h-1z"/><path fill="#54adb2" d="M1010 738h10v2l4 1-7-1z"/><path fill="#99dee8" d="M956 729h7l4 1v2h-4l-3-1z"/><path fill="#bb7047" d="M956 727h11v2l2 1-7-1z"/><path fill="#f9e0c7" d="M501 706h4l4 6-1 2z"/><path fill="#e2782a" d="M848 704q7-1 13 3h-9l-2-1z"/><path fill="#f8623c" d="m1120 687 3 1v8l-2 2z"/><path fill="#b84b02" d="m949 690 5 2v4l-2 1z"/><path fill="#1895a1" d="M112 636q4 1 6 5l2 1 1 2-1 2-3-3-2-1q-3-2-3-6"/><path fill="#209196" d="M128 599q6 1 7 3l-1 4z"/><path fill="#b5530b" d="M571 590q-1 4-5 6l-1 2-2 1-2-1 3-4 2-2q2-2 5-2"/><path fill="#ebb038" d="m451 550 10 4-4 2-5-2z"/><path fill="#523c2c" d="M678 531q3 3 3 8v5l-3-4z"/><path fill="#c16110" d="M962 514h1l1 6v6l-2 2z"/><path fill="#458b84" d="m1049 505 1 4-4 6h-2l2-7h2z"/><path fill="#d15e02" d="M650 504v2h3l1 3-2-1-10-3q4-3 8-1"/><path fill="#c89637" d="M423 472v10l-1 3v2h-1l-1-11 2-1z"/><path fill="#dca637" d="M733 468v4l-1 5-1 2-2-2 1-4v-2z"/><path fill="#202331" d="M544 412q7 3 9 9-6-1-9-7z"/><path fill="#4e392c" d="m707 398 1 4-8 7q0-4 4-7l1-2z"/><path fill="#245f66" d="m383 204 6 2v3l-6-1z"/><path fill="#d2e2d2" d="m294 1099 15 1v1l-15 1z"/><path fill="#9a703b" d="M789 1098h8l-2 4h-4z"/><path fill="#f5f0dd" d="M328 1094h7l1 2-9 1z"/><path fill="#bf5f2d" d="M735 1040h1v11l-3-3v-4h2z"/><path fill="#be5925" d="m1029 1005 7 1q-4 3-9 2h-5v-1h7z"/><path fill="#097187" d="m1019 875 9 1-1 3z"/><path fill="#fae4cd" d="M714 865q6 2 8 6l-7-2z"/><path fill="#f93b13" d="M438 792q3 3 3 5v8h-1l-1-4-1-3z"/><path fill="#f96843" d="m344 787-6 2-3-1v5h-1v-6z"/><path fill="#f9e2c9" d="M355 782h3l2 1h2v1l-12 1q2-3 5-3"/><path fill="#378c88" d="m978 717 8 9-1 2-7-9z"/><path fill="#e07a2c" d="m829 700 8 1v2l-9-1z"/><path fill="#3d3530" d="M447 546q5 0 9 5-5 0-9-4z"/><path fill="#1f2536" d="m606 492 2 1-2 2-2 7h-1v-8z"/><path fill="#4f372a" d="M957 449q4 5 3 11l-1-3h-3z"/><path fill="#9b8247" d="M978 440h2l1 8h-2v-2h-2z"/><path fill="#563828" d="M685 431v7h-2v4h-2z"/><path fill="#8acacc" d="m1013 1118-3 1h-7v-2c7-1 7-1 10 1"/><path fill="#3a8880" d="m508 1111 10 3v2l-10-2z"/><path fill="#c24204" d="m498 1077-2 3h-11v-2z"/><path fill="#a3cac8" d="m741 1060 5 1v2l3 1v2q-5-1-8-6"/><path fill="#fae4ca" d="M741 892h1v7l-2 4v-10z"/><path fill="#7ac1ca" d="M1028 873v2l2 1-12-2v-1z"/><path fill="#8fd0d6" d="m990 864 2 2-2 2-4 6-1-5z"/><path fill="#f9d8c0" d="M340 845q3 3 2 8v4l-3-4z"/><path fill="#f85e35" d="m393 838 1 2 3-1-1 6-2 1c-2-5-2-5-1-8"/><path fill="#f9cfb6" d="M263 830q3 5 2 11h-3z"/><path fill="#fadac5" d="M388 810q4 2 4 6v3l-3-1z"/><path fill="#f93f16" d="m305 813 3 1 1 8v4h-1v-2l-1-2v-3z"/><path fill="#f95e37" d="M260 796h5l-1 2q-4 4-3 10h-1z"/><path fill="#a7dde2" d="M818 791h1l-1 8h-2l-1 3q0-5 3-11"/><path fill="#a1cccd" d="M889 714c9 1 9 1 12 3h-9v-2z"/><path fill="#b2502a" d="M362 714v2l-12 1v-1q6-2 12-2"/><path fill="#222632" d="m530 587 3 1-8 6-2-1z"/><path fill="#202534" d="m340 577 7 9q-4-1-7-6z"/><path fill="#e9af37" d="M905 572q-2 6-7 8 1-7 7-8"/><path fill="#b6510c" d="m322 550 3 1 2 7q-3 0-5-4z"/><path fill="#368d8a" d="m1088 527 2 1-6 8-1-3z"/><path fill="#182032" d="M544 505h1l-1 11h-2z"/><path fill="#383438" d="M757 471h1l2 11h-2v-2h-2l-1-5h2z"/><path fill="#96824c" d="M983 458q3 2 3 6v7l-3-9v-2z"/><path fill="#3e3633" d="m438 448 2 3-6 3z"/><path fill="#eab035" d="M759 436q-1 5-6 7h-2q3-6 8-7"/><path fill="#23696f" d="M825 235h9q-4 4-9 4z"/><path fill="#29474c" d="m906 202-2 1v2l-5 1 1-4z"/><path fill="#27474b" d="M384 163q-5 4-12 4v-2l5-2h7"/><path fill="#8acbd0" d="M1027 1090h3v4l-1 3v2l-2 1z"/><path fill="#c0400b" d="M465 1080h10q-2 3-6 3l-4-1z"/><path fill="#bc5e2c" d="M1030 945v5l-3 3h-2z"/><path fill="#46a6b3" d="M940 950h11l1 3q-7 0-12-3"/><path fill="#f9633d" d="m350 874 12 1v1l-12 1z"/><path fill="#fcf5e5" d="M672 859q2 2 3 7v4q-2-2-3-7v-4"/><path fill="#cb4904" d="M1078 857q5 4 5 9l-3-4-2 2z"/><path fill="#0e758a" d="M866 852h2v2h2l1 5-4-2z"/><path fill="#f95a31" d="m409 838 1 4h2l1-4v5l-5 3z"/><path fill="#096f85" d="m996 835 4 1h3l2 1 1 2q-6 1-10-2z"/><path fill="#fcf7ea" d="m284 827 2 1 1 8h-3z"/><path fill="#82c7cf" d="m956 820 2 5-4 6z"/><path fill="#8dced5" d="m997 821 3 3-3 1-1 7h-1l-1-8z"/><path fill="#f9603a" d="m262 818 3 1-1 11h-1z"/><path fill="#76bfc8" d="m941 810 6 2v1h-6v6h-1v-8z"/><path fill="#f85a2f" d="M286 795h10l-5 4-1-2z"/><path fill="#aa500f" d="M951 554v6l-1 3-3 1 1-4 1-3z"/><path fill="#6c8469" d="M1042 547h2l12 2v1h-8q-3 1-5-2z"/><path fill="#1d2231" d="m842 530 1 3-5 6h-2z"/><path fill="#191f30" d="M571 530c1 5 0 6-2 11l-2-2z"/><path fill="#e5ac39" d="M851 464h2v7l-1 2-2-7z"/><path fill="#dad1be" d="m764 460 2 1-4 7h-3q1-5 5-8"/><path fill="#383132" d="M568 447q4 3 4 7l-2 3q-2-5-2-10"/><path fill="#c6791d" d="M713 440h1v5h-2l-1 4h-2z"/><path fill="#de8719" d="m533 404 8 6-4 1z"/><path fill="#45332c" d="m590 324 4 1 4 6q-5-1-8-6z"/><path fill="#368f8b" d="M939 270h-2v2l-9 2c7-5 7-5 11-4"/><path fill="#3d8e87" d="M1000 237q6 1 10 5l-1 2-1-1-8-5z"/><path fill="#1f6d74" d="m418 219 4 3v2l2 1-9-3v-2z"/><path fill="#c67926" d="m507 1118-1 4-1-2h-8v-1z"/><path fill="#ca5e2c" d="m543 1069-7 4-4-2 4-2h7"/><path fill="#a6dde2" d="M1035 1056h1v8h-2l-1 2z"/><path fill="#e2782b" d="m547 988 3 3v5l-1 2v2h-1z"/><path fill="#e17326" d="m698 936 2 1q-1 4-6 5h-2z"/><path fill="#37a1af" d="M835 924h2l-1 4 2 1-3 2v-2l-2-1z"/><path fill="#f95f37" d="m291 852-4 1v8h-1v-3l-2-6z"/><path fill="#f9d2bb" d="M413 837h1v10l-3 1v-2z"/><path fill="#24879a" d="m855 823 2 1-4 6-2-1 1-4z"/><path fill="#fbf2e0" d="m322 797 2 6-1 3-3-3v-3h2z"/><path fill="#f9451a" d="m270 796-3 1-1 3h-4l1-3z"/><path fill="#f9dbc3" d="m279 791 9 1v1l-11 1 2-1z"/><path fill="#4e8b7c" d="M962 630h2q-1 5-6 9v-3h2v-2z"/><path fill="#438d85" d="M312 631h2l3 4 1 2 1 2-1 2-3-4-2-3z"/><path fill="#dfa836" d="M492 606q-4 3-10 3 4-4 10-3"/><path fill="#b04f09" d="m710 593 5 5-4 1-2-3z"/><path fill="#1c2334" d="m695 570 7 9-4-1q-3-3-3-8"/><path fill="#e1a938" d="m540 575 3 1-7 6q1-5 4-7"/><path fill="#544431" d="m710 541 3 3 1 3v2l1 2-3-1-1-5-1-2z"/><path fill="#1695a2" d="m238 525 4 3 1 7c-5-7-5-7-5-10"/><path fill="#388e89" d="m1101 523-4 2-3 1-4 1 1-3q5-3 10-1"/><path fill="#b78a35" d="M732 514q4 4 4 10l-5-2 2-1z"/><path fill="#1a1b28" d="m520 477 1 4-5 6-2-2 2-2z"/><path fill="#191925" d="M757 466h1l-1 9h-2c0-6 0-6 2-9"/><path fill="#1f2230" d="m775 432-1 2-5 1-2 1h-2q4-5 10-4"/><path fill="#c2771d" d="m414 387 2 1c-4 4-4 4-8 4h-2z"/><path fill="#ab500e" d="M879 363h7l2 4-9-3z"/><path fill="#3e3330" d="m703 314 3 1q-3 4-7 4l-1-2z"/><path fill="#3b8e89" d="m975 247 2 1q-4 4-9 5z"/><path fill="#c65814" d="M745 1066h5l1 2-6 2z"/><path fill="#83c8d0" d="m963 1032 10 1v1l-10 1z"/><path fill="#89ccd3" d="M992 940v2l-10-1v-1z"/><path fill="#d75d0d" d="M667 919h1l-1 9-3-3z"/><path fill="#f9e0c8" d="M589 915v1l-9 1-1-2z"/><path fill="#f27917" d="m550 884 3 2-6 3-3-1z"/><path fill="#f9d3b9" d="M429 857h1v4l1 3 2 4-3 1q-2-3-2-8l1-2z"/><path fill="#f95e3a" d="M448 857h1v8h-6l2-1q3-3 3-7"/><path fill="#238799" d="M881 851q4 4 3 7l-4 1 1-2-1-4z"/><path fill="#f07517" d="M669 854h1l1 8-2 1-2-7h2z"/><path fill="#a4dce1" d="M823 839q4 2 7 6-4 0-7-4z"/><path fill="#f96b45" d="M340 839h3l-1 9q-2-4-2-9"/><path fill="#f9461e" d="M265 838h2q2 6-1 10z"/><path fill="#097086" d="m883 836 1 3-4 4h-2z"/><path fill="#f9c3a8" d="M282 820h1v5h2l-1 7q-3-5-2-12"/><path fill="#a4dce1" d="M848 789h2l-9 6q3-8 7-6"/><path fill="#f95d36" d="M470 772q-3 3-8 2l-2-1h-2v-1z"/><path fill="#b0b5a6" d="M783 745h1l1 7h-2l-1 4z"/><path fill="#e7d1b9" d="m354 717-3 1v2l-8-1q6-2 11-2"/><path fill="#e76238" d="m1094 711 5 1v3l-8-1z"/><path fill="#e76d15" d="M792 704h2l-5 9-1-3z"/><path fill="#b25d22" d="M343 665h2q0 5-3 9l-2-1 2-5h2z"/><path fill="#d3a037" d="m412 599 3 2v2h3v2q-5-1-8-5z"/><path fill="#dca536" d="M763 597q5 0 8 2v2l-6-1z"/><path fill="#edb339" d="m713 545 3 1 2 5-2 2z"/><path fill="#658871" d="M1038 538q4 4 4 9l-3-1z"/><path fill="#2c8e90" d="m1111 522 9 2v2l-9-3z"/><path fill="#db710d" d="M313 475h1l-1 11h-1l-2-7 3-1z"/><path fill="#362f2f" d="M535 455q4 3 5 8l-2 1z"/><path fill="#3d3431" d="M353 440h1c-1 7-1 7-3 9l-1-4z"/><path fill="#ce9d37" d="m508 433 9 1v3l-9-3z"/><path fill="#212330" d="m807 431 6 1 1 2-9-1z"/><path fill="#232532" d="m336 418 1 2q-1 4-5 6 1-5 4-8"/><path fill="#408880" d="m312 401 1 4h-2l-1 5h-2z"/><path fill="#dc7009" d="m559 386 6 4-1 4c-5-6-5-6-5-8"/></svg>